<mxfile host="app.diagrams.net" modified="2021-04-20T09:28:50.018Z" agent="5.0 (Macintosh; Intel Mac OS X 10_15_6) AppleWebKit/605.1.15 (KHTML, like Gecko) Version/14.0.2 Safari/605.1.15" etag="r-Y6fvEo30OppMv43by1" version="14.6.1" type="github">
  <diagram id="6R1c6_Ys54nyE_McFff9" name="Page-1">
    <mxGraphModel dx="1102" dy="709" grid="1" gridSize="10" guides="1" tooltips="1" connect="1" arrows="1" fold="1" page="1" pageScale="1" pageWidth="1169" pageHeight="827" math="0" shadow="0">
      <root>
        <mxCell id="0" />
        <mxCell id="1" parent="0" />
        <mxCell id="mMt1HUlp_AQde-eNb0EH-6" style="edgeStyle=orthogonalEdgeStyle;rounded=0;orthogonalLoop=1;jettySize=auto;html=1;" edge="1" parent="1" source="mMt1HUlp_AQde-eNb0EH-1" target="mMt1HUlp_AQde-eNb0EH-2">
          <mxGeometry relative="1" as="geometry" />
        </mxCell>
        <mxCell id="mMt1HUlp_AQde-eNb0EH-1" value="PIM" style="rounded=0;whiteSpace=wrap;html=1;" vertex="1" parent="1">
          <mxGeometry x="250" y="170" width="120" height="60" as="geometry" />
        </mxCell>
        <mxCell id="mMt1HUlp_AQde-eNb0EH-4" style="edgeStyle=orthogonalEdgeStyle;rounded=0;orthogonalLoop=1;jettySize=auto;html=1;" edge="1" parent="1" source="mMt1HUlp_AQde-eNb0EH-2" target="mMt1HUlp_AQde-eNb0EH-3">
          <mxGeometry relative="1" as="geometry" />
        </mxCell>
        <mxCell id="mMt1HUlp_AQde-eNb0EH-9" value="Assign" style="edgeLabel;html=1;align=center;verticalAlign=middle;resizable=0;points=[];" vertex="1" connectable="0" parent="mMt1HUlp_AQde-eNb0EH-4">
          <mxGeometry x="0.1" y="-1" relative="1" as="geometry">
            <mxPoint as="offset" />
          </mxGeometry>
        </mxCell>
        <mxCell id="mMt1HUlp_AQde-eNb0EH-2" value="Import Items&lt;br&gt;Item_num, image_name" style="shape=process;whiteSpace=wrap;html=1;backgroundOutline=1;" vertex="1" parent="1">
          <mxGeometry x="250" y="310" width="120" height="60" as="geometry" />
        </mxCell>
        <mxCell id="mMt1HUlp_AQde-eNb0EH-3" value="MM" style="rounded=0;whiteSpace=wrap;html=1;" vertex="1" parent="1">
          <mxGeometry x="250" y="490" width="120" height="60" as="geometry" />
        </mxCell>
        <mxCell id="mMt1HUlp_AQde-eNb0EH-5" value="&lt;u&gt;&lt;b&gt;POST IMPORT PLUGIN&lt;/b&gt;&lt;/u&gt;&lt;br&gt;1. Find Image ID from Image_name (MM)&lt;br&gt;&lt;br&gt;2. Java Program - Set three parameters in MQ (1. Image_ID, file_name, Category_ID)&amp;nbsp;" style="text;html=1;strokeColor=none;fillColor=none;align=left;verticalAlign=middle;whiteSpace=wrap;rounded=0;" vertex="1" parent="1">
          <mxGeometry x="420" y="290" width="250" height="100" as="geometry" />
        </mxCell>
        <mxCell id="mMt1HUlp_AQde-eNb0EH-8" value="" style="shape=image;verticalLabelPosition=bottom;labelBackgroundColor=#ffffff;verticalAlign=top;aspect=fixed;imageAspect=0;image=data:image/png,iVBORw0KGgoAAAANSUhEUgAAAqwAAAEVCAYAAAAl77cQAAAMaWlDQ1BJQ0MgUHJvZmlsZQAASImVVwdYU8kWnluSkJDQAqFICb0J0quUEFoAAamCjZAEEkqMCUHFXhYVXLuIYEVXRRRdCyCLitjLotj7YkFFWRcLiqLyJiSg677yvfN9c+e/Z878p9yZe+8AoNnLlUjyUC0A8sUF0oSIEOaYtHQmqQMgQBtQgT6gcXkyCSs+PgZAGez/Lu9vQGsoV50UXP8c/6+iwxfIeAAg4yDO5Mt4+RA3A4Cv50mkBQAQFXrLKQUSBZ4Dsa4UBgjxagXOVuKdCpypxE0DNkkJbIgvA6BG5XKl2QBo3IN6ZiEvG/JofIbYRcwXiQHQHA5xIE/I5UOsiH14fv4kBS6H2A7aSyCG8QCfzO84s//GnznEz+VmD2FlXgOiFiqSSfK40/7P0vxvyc+TD/qwgY0qlEYmKPKHNbyVOylagakQd4kzY+MUtYa4V8RX1h0AlCKURyYr7VFjnowN6wcYELvwuaHREBtDHC7Oi41R6TOzROEciOFqQaeKCjhJEBtAvEggC0tU2WyWTkpQ+ULrsqRslkp/lisd8Kvw9UCem8xS8b8RCjgqfkyjSJiUCjEFYqtCUUosxBoQO8tyE6NVNiOLhOzYQRupPEERvxXECQJxRIiSHyvMkoYnqOxL8mWD+WKbhSJOrArvLxAmRSrrg53kcQfih7lglwViVvIgj0A2JmYwF74gNEyZO/ZcIE5OVPH0SgpCEpRzcYokL15lj1sI8iIUeguIPWSFiaq5eEoBXJxKfjxLUhCfpIwTL8rhRsUr48GXgxjABqGACeSwZYJJIAeIWrvqu+CdciQccIEUZAMBcFJpBmekDoyI4TURFIE/IRIA2dC8kIFRASiE+i9DWuXVCWQNjBYOzMgFTyHOB9EgD97LB2aJh7ylgCdQI/qHdy5sPBhvHmyK8X+vH9R+07CgJkalkQ96ZGoOWhLDiKHESGI40R43wgNxfzwGXoNhc8N9cN/BPL7ZE54S2giPCNcJ7YTbE0XzpD9EOQq0Q/5wVS0yv68FbgM5PfEQPACyQ2acgRsBJ9wD+mHhQdCzJ9SyVXErqsL8gftvGXz3NFR2ZBcyStYnB5Ptfpyp4aDhOcSiqPX39VHGmjlUb/bQyI/+2d9Vnw/76B8tsUXYAewMdhw7hzVh9YCJHcMasIvYEQUeWl1PBlbXoLeEgXhyIY/oH/64Kp+KSspcalw6XT4rxwoEUwsUG489STJNKsoWFjBZ8OsgYHLEPOfhTDcXN1cAFN8a5evrLWPgG4Iwzn/TzYd7PEDc39/f9E0X/QmAg+Zw+7d/09lega8J+J4+u4InlxYqdbjiQoBvCU240wyBKbAEdjAfN+AF/EEwCANRIA4kgTQwAVZZCNe5FEwBM8BcUAxKwXKwBlSATWAr2An2gP2gHjSB4+A0uAAug+vgLlw9HeAl6AbvQR+CICSEhtARQ8QMsUYcETfEBwlEwpAYJAFJQzKQbESMyJEZyHykFFmJVCBbkGrkV+Qwchw5h7Qht5GHSCfyBvmEYigV1UVNUBt0BOqDstBoNAkdj2ajk9EidAG6FC1Hq9DdaB16HL2AXkfb0ZdoDwYwdYyBmWNOmA/GxuKwdCwLk2KzsBKsDKvCarFG+JyvYu1YF/YRJ+J0nIk7wRUciSfjPHwyPgtfglfgO/E6/CR+FX+Id+NfCTSCMcGR4EfgEMYQsglTCMWEMsJ2wiHCKbiXOgjviUQig2hL9IZ7MY2YQ5xOXELcQNxLbCa2ER8Te0gkkiHJkRRAiiNxSQWkYtI60m7SMdIVUgepV01dzUzNTS1cLV1NrDZPrUxtl9pRtStqz9T6yFpka7IfOY7MJ08jLyNvIzeSL5E7yH0UbYotJYCSRMmhzKWUU2oppyj3KG/V1dUt1H3VR6uL1Oeol6vvUz+r/lD9I1WH6kBlU8dR5dSl1B3UZupt6lsajWZDC6al0wpoS2nVtBO0B7ReDbqGswZHg68xW6NSo07jisYrTbKmtSZLc4JmkWaZ5gHNS5pdWmQtGy22Fldrllal1mGtm1o92nRtV+047XztJdq7tM9pP9ch6djohOnwdRbobNU5ofOYjtEt6Ww6jz6fvo1+it6hS9S11eXo5uiW6u7RbdXt1tPR89BL0ZuqV6l3RK+dgTFsGBxGHmMZYz/jBuOTvok+S1+gv1i/Vv+K/geDYQbBBgKDEoO9BtcNPhkyDcMMcw1XGNYb3jfCjRyMRhtNMdpodMqoa5juMP9hvGElw/YPu2OMGjsYJxhPN95qfNG4x8TUJMJEYrLO5IRJlynDNNg0x3S16VHTTjO6WaCZyGy12TGzF0w9JouZxyxnnmR2mxubR5rLzbeYt5r3WdhaJFvMs9hrcd+SYuljmWW52rLFstvKzGqU1QyrGqs71mRrH2uh9VrrM9YfbGxtUm0W2tTbPLc1sOXYFtnW2N6zo9kF2U22q7K7Zk+097HPtd9gf9kBdfB0EDpUOlxyRB29HEWOGxzbhhOG+w4XD68aftOJ6sRyKnSqcXrozHCOcZ7nXO/8aoTViPQRK0acGfHVxdMlz2Wby11XHdco13muja5v3BzceG6Vbtfcae7h7rPdG9xfezh6CDw2etzypHuO8lzo2eL5xcvbS+pV69XpbeWd4b3e+6aPrk+8zxKfs74E3xDf2b5Nvh/9vPwK/Pb7/eXv5J/rv8v/+UjbkYKR20Y+DrAI4AZsCWgPZAZmBG4ObA8yD+IGVQU9CrYM5gdvD37GsmflsHazXoW4hEhDDoV8YPuxZ7KbQ7HQiNCS0NYwnbDksIqwB+EW4dnhNeHdEZ4R0yOaIwmR0ZErIm9yTDg8TjWnO8o7ambUyWhqdGJ0RfSjGIcYaUzjKHRU1KhVo+7FWseKY+vjQBwnblXc/Xjb+Mnxv40mjo4fXTn6aYJrwoyEM4n0xImJuxLfJ4UkLUu6m2yXLE9uSdFMGZdSnfIhNTR1ZWr7mBFjZo65kGaUJkprSCelp6RvT+8ZGzZ2zdiOcZ7jisfdGG87fur4cxOMJuRNODJRcyJ34oEMQkZqxq6Mz9w4bhW3J5OTuT6zm8fmreW95AfzV/M7BQGClYJnWQFZK7OeZwdkr8ruFAYJy4RdIraoQvQ6JzJnU86H3LjcHbn9eal5e/PV8jPyD4t1xLnik5NMJ02d1CZxlBRL2if7TV4zuVsaLd0uQ2TjZQ0FuvCn/qLcTv6T/GFhYGFlYe+UlCkHpmpPFU+9OM1h2uJpz4rCi36Zjk/nTW+ZYT5j7oyHM1kzt8xCZmXOapltOXvB7I45EXN2zqXMzZ37+zyXeSvnvZufOr9xgcmCOQse/xTxU02xRrG0+OZC/4WbFuGLRItaF7svXrf4awm/5HypS2lZ6eclvCXnf3b9ufzn/qVZS1uXeS3buJy4XLz8xoqgFTtXaq8sWvl41ahVdauZq0tWv1szcc25Mo+yTWspa+Vr28tjyhvWWa1bvu5zhbDiemVI5d71xusXr/+wgb/hysbgjbWbTDaVbvq0WbT51paILXVVNlVlW4lbC7c+3Zay7cwvPr9UbzfaXrr9yw7xjvadCTtPVntXV+8y3rWsBq2R13TuHrf78p7QPQ21TrVb9jL2lu4D++T7Xvya8euN/dH7Ww74HKg9aH1w/SH6oZI6pG5aXXe9sL69Ia2h7XDU4ZZG/8ZDvzn/tqPJvKnyiN6RZUcpRxcc7T9WdKynWdLcdTz7+OOWiS13T4w5ce3k6JOtp6JPnT0dfvrEGdaZY2cDzjad8zt3+LzP+foLXhfqLnpePPS75++HWr1a6y55X2q47Hu5sW1k29ErQVeOXw29evoa59qF67HX224k37h1c9zN9lv8W89v591+fafwTt/dOfcI90rua90ve2D8oOoP+z/2tnu1H3kY+vDio8RHdx/zHr98InvyuWPBU9rTsmdmz6qfuz1v6gzvvPxi7IuOl5KXfV3Ff2r/uf6V3auDfwX/dbF7THfHa+nr/jdL3hq+3fHO411LT3zPg/f57/s+lPQa9u786PPxzKfUT8/6pnwmfS7/Yv+l8Wv013v9+f39Eq6UO/ArgMGGZmUB8GYHALQ0AOjw3EYZqzwLDgiiPL8OIPCfsPK8OCBeANTCTvEbz24GYB9sNnMgN2yKX/ikYIC6uw81lciy3N2UXFR4EiL09ve/NQGA1AjAF2l/f9+G/v4v22CwtwFonqw8gyqECM8Mm4MV6LrBWBz8IMrz6Xc5/tgDRQQe4Mf+X55bjwFeCncVAAAAOGVYSWZNTQAqAAAACAABh2kABAAAAAEAAAAaAAAAAAACoAIABAAAAAEAAAKsoAMABAAAAAEAAAEVAAAAAAeTbKAAAEAASURBVHgB7J13YFzFufa3F5VV7122qi33hhvYGEw3YDoktECAhBRuGvfetHuTL8m96QklQLghhN5sijHFBffeLdmyZfXedyXtarXlM88zRwaDbYGFy/Lqj/PsOzNnym/mzDnzavasPnj4Tyd/QkAICAEhIASEgBAQAkLgDCVgOEPrJdUSAkJACAgBISAEhIAQEAIgIA+sMhCEgBAQAkJACAgBISAEzmgC8sB6RnePVE4ICAEhIASEgBAQAkJAHlhlDAgBISAEhIAQEAJCQAic0QTkgfWM7h6pnBAQAkJACAgBISAEhIA8sMoYEAJCQAgIASEgBISAEDijCcgD6xndPVI5ISAEhIAQEAJCQAgIAXlglTEgBISAEBACQkAICAEhcEYTMA2ldvLbAkOhJGmEgBAQAkJACAgBISAENAJ6vV77eNIqHtaTRigZCAEhIASEgBAQAkJACHyRBIbkYW1tbUUduru7v8i6SN5CQAgIASEgBISAEBACZzmBuLg4tCA2NnbYWiIe1mFDKRkJASEgBISAEBACQkAIfBEEhuRh7evrQ9lOp/OLqIPkKQSEgBAQAkJACAgBIRAiBCIjI4e9JeJhHXakkqEQEAJCQAgIASEgBITAcBKQB9bhpCl5CQEhIASEgBAQAkJACAw7AXlgHXakkqEQEAJCQAgIASEgBITAcBKQB9bhpCl5CQEhIASEgBAQAkJACAw7AXlgHXakkqEQEAJCQAgIASEgBITAcBIY0lsChq/AAWTlbGyCNrR0QPsHC+AvIhiN8QjJLkiGhpv5XD18v5cwWOBp/hBE+T4P329bW9XM+iSkQ7NjbVB3Vxu0oZa8rIkpsJMTo6EKDz7LQQgIASEgBISAEBACoUZAPKyh1qPSHiEgBISAEBACQkAIhBiBU+thDXYC36anHoY+8cFBqGMkPYoOUwB2V2cW9OrvXgedW5IGtRlCzMcaoG+5ef8HaN+f/rAEmnLzA9DvzWO767atg710RQ208MoF0NiEKKhZF2Jc0Co5CAEhIASEgBAQAkKABMTDKiNBCAgBISAEhIAQEAJC4IwmcGo9rDq1Z3OAe1lNGTMA5/Zv3wAdYdgHffiHj0NffyUfOiqNHkRneQXsLj/3dprNvbDDYougIzMs0EPbdkNrOvjLXH6DGbYjYxR06qhUaMDZCN23az+0y8/n92CQ+brd9GAWTByD+Owk/nJDoKcB9vb1LKfN64Otj+Rv5uYUjYVd6GA79+wthe3Ss94G9Yth7ijuQfWt34n4xo52qHfbRug6x2RoTv5o6JRgAjQqnvWyGMizo3YTwreVtULd/eRlj0iDPXYqz48zeWBXHyTnPRVsPwIPH0wxOfg4cexIaEIk6yv+W42QqBAQAkJACAgBIXA6CIiH9XRQlzKFgBAQAkJACAgBISAEhkzgFHtYP14vvYHPy0ajEREmpYYAPYf6MIa76nchfvFj9Lxuc3Kva7/XivALbr4b6txbBX1xMT2fsfn8Nr3Vy2/Xl62iZ7H39oVIV+TcAH3hkRegzrRiaEE2sexbR0/qjlZ6UL9yCffW7n/xXzxvmws6ssABbenkt/lTGuihjZ5Mj+sL//wb4ks72a5gC9NFzr0G4Rf0M58BtxN2q3qLQmcP87Hu3Yrwpx8vg069Owkaa66CvvbUn6FlfXnQlAiIrnn/GnxoMYdBz4uuh/7jN89AK6zMZ/x4emJjdMkID8ieWHCQgxAQAkJACAgBIXBmEBAP65nRD1ILISAEhIAQEAJCQAgIgWMQOD0e1iA9jf0NO1Ctxf+ih9E+wD2ch9InIvz6BSXQmCD3gOp09HTaorm385J5ExA/aQw9iBv/Ro9pd875CP/WnfOg+sr3oT/57VvQ9dumQnNHKI+njns1c0suQ/gtV3Nv6VuHfgf73Z0HoXXFPdDVy7dDu6NHQP3ePmhnJT24TiM9sbV5LEc1V2cMpydz7s2XI33eeLYz18M9qRv2sf3pF1+B+EvnZkMPrtgG1Q7BgB8fm/a9C129owXqyKWHtd9Fj3J9PfeoBtXbGIrn8jy9mTnZw9n9Aa8XAe4+enQ9XqYjHZ34W4lLjkJACAgBISAEhMBpIiAe1tMEXooVAkJACAgBISAEhIAQGBqB0+Nh1Xx25nDUMjEzH5qXGge9IJ3f+h+XT7uzvAzhQR33hOaPvwD2NTdOg0Z6+PaAvTYLbL361r5XvY3A2M/3nbr1fD432eliNOq177/bcZ7JRBzBAD25/X7ulbUkcVOo3UZPbJiZe2uNdtZvxBi+fWDshBnIJzqNns7syC7WR+3VzRpzLuwFC+j5TYukJ7NuJ98SoFUn4Ge4X5WveTpx8kcOBhP38BoNrE9kXDpiRxdMgk6cQb5JGYWwR+SyvVfezfDa1k6EV22mp3bV1lbYIwvZHykx9FxbZVkDLnIQAkJACAgBISAETg8BeRQ5PdylVCEgBISAEBACQkAICIEhEjjFHlZ6+Ixmejgd6SNRzZlz6HEclxkDm/7CDz/S06lXHlmzhR5Ok/Jwav5Rg41vA5h59YU4v+LZVdAnfrsZ6nZzb2bs2Pmwr56eC7XUVkJ1ujrouqV8C0HNVgY31ibiw6XXqr2mOXwbwIW3XILwtte5t3TLWnoqjapCI8fRJ5o+gfUymen5tViIW/Ok6vRsqT2G74XNS/Ig302Ln4b+X8ccaHEc1xVmKz2qFgv5JRdzz+1V8+hhXrl/D9KvbyuHmsLpAS6ykGuUlx7UDYveR/yhwAC0s64ZmlIyG5qVzD21Zg0wQuUgBISAEBACQkAICIHTQ0A8rKeHu5QqBISAEBACQkAICAEhMEQC+uDhvxOlraqqQpL2dn6L/UTpjx3Pb6N3VNOj2anj3tBUtXfVdpTnVKd+Gau/lx7MlsZuZG2O5vtDE+K5x1LzyPq9LsQ3VDdAXf30IAbVXs/IWL5nNDWBnsr6rYuR7qHfLoKaxi+ELrikAOowcc9sem4C7AgLXY79PaxPfS2/ne8JcK+rBtIRx3ISo+hZbWyiB9PkYHhyLNttVsuFgX56gNsaalFORx8jHLHxsCMt5NbeRo9zbDrb71Dvqe1rr0K6+lY31MctsDq9mR7pmHjWPzLItxk0N7Ef6c89/BYA5fJ1JGXi/CP1ExcrgMhBCAgBISAEhIAQGDKBtLQ0pE1O5nPPkE88TkLxsB4HjkQJASEgBISAEBACQkAInH4Cp9jDevobzBrQY1m7/R2YTz2xHppx8a3Qay6lhzVcHIzEJUchIASEgBAQAkJACAyRgHhYhwhKkgkBISAEhIAQEAJCQAiEDoEvqYeVu019Xu757O3hXldTGPfEhtn4LXxxsIbOQJeWCAEhIASEgBAQAqeGgHhYTw1nKUUICAEhIASEgBAQAkLgDCLAF4OeoEIWC7/tHhHBb7efIPlZFB2JukbzZQBnUb2lqkJACAgBISAEhIAQODMJWNV744ezdvKWgOGkKXkJASEgBISAEBACQkAIDDuBIe1hDaj3jA576ZKhEBACQkAICAEhIASEQEgR0N7vrulwNE48rMNBUfIQAkJACAgBISAEhIAQ+MIIDGkPq/ZjWOJp/cL6QTIWAkJACJwWAkYjfyvQYBD/xWnpAClUCAiBIRGQGWpImCSREBACQkAICAEhIASEwOkiMCQP68AA31Pq8/G37E9XZaVcISAEhIAQGF4C2rd5xcM6vFwlNyEgBIaXgHhYh5en5CYEhIAQEAJCQAgIASEwzATkgXWYgUp2QkAICAEhIASEgBAQAsNLQB5Yh5en5CYEhIAQEAJCQAgIASEwzATkgXWYgUp2QkAICAEhIASEgBAQAsNLQB5Yh5en5CYEhIAQEAJCQAgIASEwzATkgXWYgUp2QkAICAEhIASEgBAQAsNLQB5Yh5en5CYEhIAQEAJCQAgIASEwzATkgXWYgUp2QkAICAEhIASEgBAQAsNLQB5Yh5en5CYEhIAQEAJCQAgIASEwzASG9EtXw1ymZCcEhIAQEAJCQAh8DgJBfz/O6nLylycjo8Jgmwz6z5Hb0E/xD7iRuN/rYXm2GKjFOPQ8JKUQOBkC4mE9GXpyrhAQAkJACAgBISAEhMAXTmBYPawBXx8q3HyoFtrtD0CDqhl6eyQ+JSQmQuPCLCrmGBLk+R5XOxJUNVBN1nDY8Smp0LBAJ7S5hSu/8LgE2NGRVqg+MADtbKqDuoyx0LREB9SkZzl9nR2wW5raoFxPfviRK9e4lEyExzlsUF8v07n00QyPYHuCaiXa0dbFdOYoaEI8V8IDznrYDS1OaP8A8zeayCc1KwXhERauJ3zeHthtLSxPbyO/eJWfUedHvLOF7WsbYD7pySw36GE5DbXNSOcJske0/khKSkJ4jN0M1Q4BXy8+Nlaxvq4BlqMzsZ2RCeSfwu7Qtbc2IX1bN/shKp7tiI+1I9xV2wB1hsdBM+JYT42/28V+bOvg+Y5knh9l4xI+6GV9ahtYTq/bi3y0/jGZ45lvLvO3fUaPQzDActvU+O0YoAcjoGP51jD2c2o6+atq6fyebpTb0NQC7XHzPL2e/ZeQnoPwmHDyDQywnN5utscax3rbtOWjqkd7Bz0p9giOG6uRdmMVOfb42B9BHS9jewTrlZbBftd6MzjQh/LrG8nN1ct8dHqOO0t8GuKzojmu3d1MV9/Ccaddv0h0+BAZy3IS48l5qB4Wn+q/jlbOD+3Oo3Pm9ZiUxOu2o4PjwednupiULFQh3q6u115er4YwjsNwC9uj1VPn5xXcVNuIoG43282zDwcZSSgiIRnxiSaOp5ZmF2xrAq+L+ChyCfSxvE4f6xet+sWsxplfce5o4Tjot3IeSo3nBaJ1r9/DeaG+iXzD49n/MeEsRx/k+HG21aAenR56slLTI2B7OzkPNrWQD2c3ROFgimF7shI4Xi3Go7gcSTo8n1R9+3o5nt0D5BoTw3GrtVsrLKi1r7kVQUY1nsLVQDq6tkGfui7VuLWo+T/K9nlvX+TramY/NbeRo7oqDl8W7K+UHF4XDk53OreT110gLAP1dliPbpnWwi9IA6xhS+V6FPDUYvb87fedCzvezooezW+4atOw4x/IaksL+Yw75xbYObFHc+D16uvjvFjnZHx6oprvP+O8PFz1P1PyCfo4LzX3sP/C7eQZaeV95kyp55lYj6NH2plYR6mTEBACQkAICAEhIASEwJeYwOddoh6FjCu/xt3LEP6Xe/8CLU2jp0dbiEZOuhTh9918FfREHtaghyvfbcteRPr/evQVqGPiQuh/3n871LLnT9BfP0bPxeXf+z7siydxhext2Az70d8+DG3L/Rr0Z9+cATV2lkOX/uFx6JLSeqhT0bGFc+U658oHEX7FdHo8Dm1lfcpirkf4TePpAand8zbsv73YCp15Fdt9TpAelWVvsL5vrKCnpN9DD2Ry+nikv/TaBdAZk3Og3XtegP72DyugBdf8AHrjJSVQa+9B6HN/+gV0o/Eq6C8eYPvqPiC///3tWwj3J0dC7cWToTddeTl0dnE+NNJMz13rfvbnz7/7BMJblQfZmsZ6zbiU7bokg+ueRf96DOne2sp2X/etX8O+agJ9Ws9893ewD8y5FfqLu+dCowP0dHzwrz/CfqU8AfrVb90HnZEyAN22jFz/+OI7sN1ueg4NQXqSskbOQ/jN378COi6OXE/kcQgG6Vlr2P0qznvqN+S0c4DhgQD7tWjahYi/9vZroEVh9FxvXfEc7Mde3QDtdvJ6iIp1wJ4z7zboBRdOgHoOboFu3VkHHXfdTdBcFqPr7yyD/a+nGT/v6imwo7rXQX/2b09C2x309BmCSbDHzboEeuPX5kOzjd3Q0tXvQf/4PLl19XAcWhz0kI6YeyXi752VDl35wu+hjy/n9ZcYYYJtMNIDMP+W78G+el4sdKgevJb9i5D+oYcfhW5rYL0jLPTI2cPpKbrhOnJ74WlyrdRlIv0DP/wZdHrYZujmvTugGef8CDomWfV0kOPX1bAR4b994CFohZ/hJuXJs6QVIvzCW66DFu4ip4dfPgT7ogfvgF46eTS0azuvw9d7ZsK+eXYRNMbKfGt3LYX9h6feh+aew3699TqmjzYwXcPW5xH/k4f2QM+799+g107LgvratkP/8Rv2wwHDV2D/x3+xvssfeQT2SytLoSbNk2kLhz1ywb3QH1zG8WZRnmQEDuNB85g3HVyGXJ9eVAPNGMfr8NpLWF+OUp3O18t5YfNGjuO1b2xF+mkPfB96TjrnJaP6j5fHyfQH13Pc/G4/4++84mKkn5kdA/2sB49zL05547d/gb6+txnaa+Q4j4zkPLjwh+yX2bHViN+6+ilo2DT2y+xcC+xTffAPcH5xuTgvqn9AfOHV8PW7UIbbw/mes/oni9X+E3ZgzyZEvlEVD71vIe9vapr75IkhG0JS7s4mtHD/+tegf6hIhN5/1YXQSelRUDkcmwBH3rHjJUYICAEhIASEgBAQAkJACJxWAlxSnnQVgsjB76NnJKvgdth3/OVyaIZZ7c1QK32reWjF6tW3ECfOosfoliDXZnXRM5Dv6GQ7dN/2XmhuHj1e1Y30LPW6uAJ3NXDl3x2eh3SxPlVfD1c8m15+EeHNqedBf/IdrngSI5iu392I8O0rucL0++l5G1B7Ed1uhlfuWY90L+z3QS+8YyF09gjWc92TD8Peab8C+ss/0POSYKPnpXrbWoS/s+QNaETG16GZag9Xegbb1dHD8jo63YiPbKdHqNWeAzvWTd56tVc1EJaG8Ok3Pgj96u1ToG2b6HlaWr4b9ohUnl+YoIcdMLHeKTPuhP0f3zgPam7nynn5xuWwS9O+Db3xanIzjOE4mDmRvMNN5YjXuTKgKd37oVUutn+EpwV2t4dcHZn03Pn95Ni0YyXin32fHoW7/uM3sCdkckVqVHt06+rIob6D6XTKw4rExzkMuDluKve+i1Rpd/8Uet/EdKjZzXGyt74Ttr+fHo6GfW/DXrw3DHrnj34HHZNOu6+RXN//28sIfzM1CzrbwPMH+llPrr8RxYPa4+fxqPgAUwRVf6TPugvpfvLN86DW1m3Q97duhR6omw41t74Ffep1jpvrv/ML2Ofkk2+gpwt2dfkWaJeqT3T2aNh3/eQG6MJxvI5gHD6YLFZ8NH3GvZFBH9tdci7nhWunfwP5FCRw3azXc14wBvsQnh7Odj9UNxL23CLW21PJfLzq28oBXqZI89FDUM/rILLkOgT/8mtzoFnanlID401mepw3bc5EfEkCPZ9dbdWw65qyoVZ1vXvUXm51eel8PW2I319/AKrPHAtN9VVCazp4vUXHq+tS7UVMHmlDfOX+ZmjfWLavv70edldPITRVzQ9BtVc9kDAB4bf98HbonJk5UIvak2xQe8wtpi/WH9HXVoZyl7/5DPT9bUnQq0eTM4wPDwFex9019Ij/61l6TBvq6BGe8AkXIefDht3LkcVLL70GrYi5FKq+GoHPn+dQt4359U7gdfLjb1+DbLKjWG5nzS7Y27yst6u5CvaGbexPm3sZbEt3ATQ3neO0prwcdlMnbYOR892EGUwXH8aB2lbF+bOyheOhvYPXYUwS0xePHoN8okxO6IHtHI+VTZyHGurIvclTjPiAxreJ43XXNtbDqS4MRwrHR3Eh6xFrZr77D/C+2FnXgnz6jHHQ4glM76nnvFBW7UV4/S72X1fcLNhTcfzkQW+2IzCzgPPIRZwOdQYv71tVh9iePZUdHzs5JoPtdzhZv6Zupg9YspFu0mzeT6L0Htg15euhWv2CuijYWQVF0II8tsfgIrcN28ity8X5RW+2Il1s/njolGye39tIjnu370N4e5DjNKeY7RmZnYBw7T/HMI574Diq2/kOUr348uvQ6qSF0CGPZzVvtNYexHl7dnM88unn8Jb8KPIbNyYf8QlhvH9Urue81GFqRXhbJ8ddVDzHw4QpnPfs/bxPlJWVIt2h+naoTn0XIyx7FOxp+SwnzPzFzi8s/OPHU1/ix8sXSwgIASEgBISAEBACQkAIHJfA0Fydx83io5FcifV07ETgu4v80GgDl1hZhWNhjx+XC40w6aHHPKgne5PJjCRmiwVqUnuNtKdtvYGfMkomI97ZVQFtamX+7eWsx+RpXJFWHGJ6V8N+pGuNjoaOnTofmhnP9IfWboS9s5oekGAK66838nxvL1eAW1b9E+kq1Pvwpi68E/b5BVyJ+dws50ApVyiX3TkR8anxXNGZdVx5545i/Uapb6PuquEKNJPN16UVceVdP9CJ8zvauHJq3N0De8IkrgDXbyEnBB4+aHzMFnp07OptAFYdbaOf6c0mrrwOu0R4qvLYmMyMt9m5IrUoD47By5V0mJVq9XE4DXrgBr8NyvCw8GTkmz2e46Fq0yHYlmTW3x9HPkVhTB8McsW354MGpJu7YC504ohEqL6dK82lq7fDHjCyHsVT2T8Kq/YSAaT5tIPewPIiU1h+d/kyJHuzLhKqtzqgmcX0lE1I4/hY+ypX6pOL2J/FufQwRSiMYanMb/RVjTj/mX010Gl57G8Yn+EQVHsze2u34ay3X6dnJuipgu2MTIGOj+F1WPmuG/bMi2ZAp45Ogzq0brax/6PiL0O4u4Ur6/1Orqy3r3oL4boKctWr8ZBTMg3hYwtzoZ/4dj7POuaxtZ793vD2q0izN5IVSi1mvpNGxiPcova2Gs28AD7zeybVW0b6VbuWL+H1GqX2pBvDef1ljytCeUEdx01aEecBv4eekaZmjr9479H9xuvE2cF+7dpL3gsvmoP8mvfSo1O+nefnX5CBcJ3y7DoKJ8BOa6FHrLo2Brb/IH0mWTMY79v+8XnS39uMdHs3vA/tbo6FGgfz5Tg9vyQb4eHaf7hgDd/BkcL63XTfr5CpLWkj1K/eqjJYkrq+YgvJ5Ze/yETU0oefhX7yLRPs75xzrkP8D1M4b3Stcg5meTIfwmJzcHrgUCt07dIXoZuVxy0sfRzseZM431WubWH8Ns63gRrODwkx5B4RqED8+++sgh5kd+v6u9hv3XHfY34ZHB+rXvs57MXVvF/Zuqtg27NpX2JJhD3K+x70mceWQ+sGeJ34dH2w3fH5UJ2fdsM+ekDfW8zzGr2KV9R0pLvhRo73iRmcNx//f4sQ7tNzvojKmwI7YGD8m6++ALvbw3Z61Vsrcs89+jpAsiMH9ZaTxgrOU4veIcfbb4hAmtef/zN08V6G50SRSyCc12G2evtHs34A6fr6LVB32oPQc+M5P+1Y/ybstzfz/N528h5/xaUIj4yfAW1/lf376MpdsE1mXrf9QeYfdkE0wovCqeuffwb2+7vroU497wP5LWz3wsumIjw7MRzKWQMfj3Fg/UfO/iri/z0tDfr9Nf3HSP/pwUGvGq+Ln0eCJxfthcaP4HwZDON9ymm4GeHT05j/K//+MOymc1iPzkbe7+LT8xBuy7kTmly2Avr4k+TarO7floE2hLdPYLpHM5Jgh5l5/4Bxig4nZn2KKiLFCAEhIASEgBAQAkJACAiBTyPAR+1Pi/lcYVzpdbRW4+y+/VwpR5m4AojJKflcuZ74JK6srFHZSDrZVwtdvbYB2tfLlcT0THouDjG5zq/eh2ZRnsVBh6BaIbYcoOejdB9XMvuUp2NU7iTk6+ziyqO0livfy2JyEG6p5sq2tzgBtlXtxRywkodJeaoQiQMrZFSe5AG1gPUdtTnPGEEPzSQzPY+lOw/h7OqGEdCLsrhyPNpxHXDTI1u+dh3S/dW1EtrSWAktuZAr8MRIbThwxa1Te3U7y+hR+PvDXKF6XI04z5Y5GTonxQ7VcWHOzx87qvbZuAKMTR6H2JZlb0HXtHF8JKelwg50kuvh7xXD9vaSm0W9lzao3qvramtC/P5S1qvNyfNcifQUjEqJQLzqbnz+tINZ1St//PWIbmvginztAeYfsHLl3aFnO4MRuUjn7eWK1XKMvTx69a16c5A10A/ufVQd/GmVORzmd3tYD7WHbtCxp/ZQdjTVIL58L8dBp/Jsp8+6CuF5SezHOlU/q3q/3yc4qHGohWvq7uJKvqqC4yCiLwz5ah7WuDx6GBD4OQ7tDVU4q1mXCHVGk6M1i+PphC7xoZap9vb1ttfhjIoDbmhkOD075oRs2AmjeN2EKc+gwZ6J8OnT6JHdto3jKuDpRXiAjqrDWzNp127fgvAl7/O6yNG/AbtiJS+I9Fn0REw9Jx3h2vt5zRZ6DovH8Tpetnwt4iP09LSOzeG436+uA0QePgTVt+0ryjnPuH2xiDJZOD7TlYdw8D8M2onDreo/YEY1zjXvh/8Y5WjtNqr/UGnj7RjJD/9niPOqUf0H7VjpPmt4itrTPLv1BZz65tr90HblyYt0sQWuCM4flxSNRfzXvzoLGjHzl9C5IzmO3C0cEMXFPQgPWnnfqd7LcbBN7VGelUyPnDkqAekuve370GtzOL4efWE97MaaA1D3xj3Qosvvhz4wfxS0t3Il9NEXOD8aTLw+k7LzED4urxoa3lcP/WAx8zswowP2qFSSt1rZrpt/eiXCR8dy3ln99rOwI2f8HPo/14+GNq77X+i6ZvYLjOMcgtp3KLTpTtlJo3i/uf+6W3H2ZTms5yP3roI98k6Gz5hMz+auN36C8PU1nO8uyOR9Ir9wBsIPdlVBW4NLoXsO7YPObOD8smHjAOw7Hvhv6PQCXie7NrF/nmwmx9pt5L92QznSmUrGQHN8rN/yl1bDLi4h53TlYeXshajjHrTxbFLj/7iJPzWSIPXxHAfX3HcdUl17dRG0+t3/hL5S3wwdHUN+YVFMf+P99yI8L8j75bsrXod9oIr3k+q1nCfHX8R0CxZyfHhKme7723k94KTTdNDmmNNUvBQrBISAEBACQkAICAEhIASOT0BzqR0/1ZBj6RnIKV6IMy7+GT0+g28JGHI+RyfkykJbsR32MSABj0fSau+JTMgsQGD34m3Qwq9nQcP9XElrK/uIWHpSAt2liN+5cgU0++qLoNNu/Rq0sHYd9K9Pc4WnrS/D1bc6F9xxGeIX2DqhK9Zthr6pll6XzKYnZWTcywj/oCIJmpHFlXlyGGvUUlWG8H0bndDxd5KnrhXm4CFhJFd4ex9uQFj6xWxHjKMRtkF9m3jwBPXtbHd/AEEmczi0cO5t0CkpfdDX3+UKcvJErsjClYe1z0OPg95oRbrUUedDJ82YDU2JZP3bYB0+qJW0Ei30sJrxOTycKzVHBs/bPEDP00XpzH+t5mHVk0/2BK6QX1rO/oxOoYdifDE9Ht9V377fpN43e/AzLsN8Xra/cgtbULzgG6jneeqXh4IdB2E/vYbl72nIgX3+WI7Axepbm8l12Qgfm+mAeruroNveWgtNn0dPiSOc47BDdwjhe2pZbm5BLOzWGpYTiE2BHR5GD52hnyvm7OnXI/zueydAG8q2Qz9Q375dUUGPdeZY9vfLm3YgPiKdnompRYzX97PddWUbEO+N5HiLyS6Gfd2cr1DHs14wcGC/feIfBUcSHPfT6Om8vm6Y/S2kK1RvCdBO0t7jOHi9D46no694nqGl03Rw/Bl5AcaXXIqEN90zD5qtvSVAK1DfhU/rlmkB1Ej1H4T0La8jYEMVPReufHLt725FePkejo+UeYWw4yI4zmPnMJ+2aB8+HGhyQvMZrDOqveDhSbzerO8tQUzi5dOg0V30eKjkg2JS/6G45lz2//mzchGnppvDn0+ufwYLGuIHjfuxVPtFNS27wXQqIHjUf5K0dEfmefb74HnaeFAJ2dojZx37E+eRup3VSGJM4zz2zR/fCtuqfqGwYtsi2L8sZ39fEMf+1mt7c9UwDHh53W5esw7pN+1h+sjocNjJSSOhfivnNRiHD3b1lhxbuB1BRjuv7wSlej0LCAQyEe+I5vla+NHzar+LHrLSlX9H+j0dGdDI+GhoRiJE59DGhfJYW9R7byMsJiTQqz3yFvULbhYD62XSeB9dMLP9HEc1PtWZRvVLT3Had1W0/3SotwpFRqYxpapf06GtsBcvpSdVF8v7SXT8CIQHYzi/BQfzIYAI7ZfUFN8j/4FQvH3sZ6/Xi3z0qnxbOK+viy/ldZqv3mJjZK0+w5HlfGIca3xVTgH1i3mVO99HyMpWln/9bN5XjhSo5adC1H88YsM4XqxqfjEaySPczn62+plPWBi59KjrL2BhOoeJ5xuMWv7UI7yO1OBUfzKc6gKlPCEgBISAEBACQkAICAEh8FkI8JH7s5xxvLTK5WIcpvf/BdV728o20/Xxf4+/itITx9GTuXPE7bBtqlyDenuAPWkswq+5LRuaMIqeo4a9B2Ab1GZVa3QO7PHjmH7z+1tg/+UBelQ6TFxxBQZcCB8569tQh/q2fJj6Vml8JFcqeePSEd/T74G+t/496GL/OdCpV8yC1m54G/rbnz4P7e1RK84gPWrnXX01wieo93k627iuMKg9XZZY+mjmXxuHdDFjWL5X/Ya50ah5BBCtMzqY7/gL6JG5Tb2HNUyt7Bo3PYGES9fyvOzCPNjhFnr0MiddDPuOr8+BJqpvWbPWOp27eQ/CX3+L7XplE9sfZme9Lh5D349BjQtbBPujeM4NOC9FRzvesx229lYDg54rvexp5yJ8cjdX1s89+ivYTzjZL0HNcxwxHuG3/jtXkCf2AHLlGFAr6s5a9tdf3iAPLV+9hSv4mHEXIf/bZnHFn6H6tdC1CuEvP/pf0Mc6ubfRoL69WzLxOoQvGMvxEa8bgJ1dTW6rHvsh7KVucupT/Tz/JpaXGUtPR2cXx4FJ9a9B7a0drfZa9Q6w/huUR1CXMwb5Fsdvgr725H9D/9VDD0JQeVriJs9D+F3ncYXdXXcQ9ouvsl4r1N5mrV/OuexWxF8+Zwo0xq6NBJjHOahxrt6P+on+0d4nWbkRefz1769AS730DC8ryIQ92cp8qnZvhv3S0vugDht9HvbsGbAXzqKnq0vtwfrVj5Yg3KT2HJvi2R/TrrwC4TmD84hWzyiEF0xjujVL34GtS+2Bujq6oS1WlnfvvVfBzoqkhzXQVwX72X+sgHbsPADtVu851uariNiRCL/6phuh4eo37NvUHvwj8ynrFWjZhXSvLH8TuuhZ5alT81HKXOZz/0UTER+j3goCYxgPvW30cL33Iq/HvzxTg9zt0fwPSLf3HtgLL+b1a2tZD/sXv38CunnjXmh0Sx90zy1Mf9d0egib1S8nPv/4XxH/zg4ftH455wnPd++Cfa66ruxDdHl5W8nvueUf4PyKJpZvVP1vzuC4vuLaLMTHODqh+gHOA3/6yYOwd82ZDI3sb4b2NpVBa2p4nbo7G2FnjWe9D7/BGLb2VpKjx79BecgMxhikGz2XHtLHX38M9nN/Zz36+zjv+TPZzz4P51uXlwC2VbIesY2chyqrY3H+JA6fww5vfhjcS6zCjXaWF59M/r1P/Rzn3f0ix3N3wzbYmefdC502B3KcAzkYtfc1q3K1eWTwOyOa51ft7dTuz4MZq/nCqH4pzu3pR5S3ZQ+0qpH9MqDeGhM0jkO42c52TBpFD/hTD/8Y4T3qPa+tfeSWeOWPEJ46nf1+0VW8rpcv24Hw3ar+9lzeb2eq94XrdJxfkOi4hwHE1mx5C/rM3x+FrthN8J2rdsK++3scz1MzeB8+sJvXy4omK+Kvmsn7sb+jHPaSN1+CLnuL97tAMsfNV27JRXi0vR1qVG8JUd18OIyf9IqryRqPdKNHcPy8uOYR2K+81QPt7+Y47pzCeRaBp+nAEXWaCpdihYAQEAJCQAgIASEgBITAiQgc/jGkE29M8agVnM+nrRSPztaPgN62LmhnK+34okTY9A99+DEI269+o92rvgXN9QSiPn5QeyjbW+oRvr+yCepIyYYWjKAanVxR9pi5ooqP4kpx8PWD6lvl3V1coXapb0+nZzCdUccVW+PeUuR7sJErE4Ye+WWfEaMmIT45gjXuVt+m7rfRA5QWRQ9Z0MNy9pQ1IH1EKuuVpn55qbueK9WySq6UvT6uYB1x6UhfODoH6lCeoF61h9LpV56+mGTE2zT/uNrb4+5huY1tXEGlZ3AFqHmC3H56YlJSuCLTHBLujirkt6+VGY7ISoBtUp7lJpVfRhZX6uYjS2Ok8zrZzr37D8HucHqh2cUToKkO1qdVvV8ytpj1D1ftY+yHvzXegvSNLvJ1KE9NlPpJEU83x8G23RVI16d+mUmn3icbmzgC4UWjk6Bm9Qth/dprFxD6KQdVgd5W1r/0EOvhU7/Ao7dxnGSNLMDJOclc6RrVeHa3VSJ8h3rPaq96f6c1jOnyRo1HfJKD40Ov5/XhbOJ55QerEd/l4fVhjs2GPaYoExqtPIduF/u3uYPrzPRMrqi1/nB3VSF9RSev05Qknm/vq0X4jn3UPlU/vTUM4Qm5xdAidq+utpIr+EMNToQfORBUVtE4BKXHKg9DgO1hrx1JrX3SPCp+9YthPT56DKJjUpDEblYdoMZxTxvrua2UfHRWcswpKEH6BGMb9OCB/VDtl4VgHD5YFL/CTI73hrKDiGpX44WUdTqD8vRn5XHcRHW5kc5v53UWn8py9T5yqNlJLr5kejASwsi5w8nrJkP1x5G3gHAGaSqtQ76BWHoyIkwdrE+QHpu0WJZj0TxR6q0Azkb2t0v9ByYhlzNp/V62u7qF8azF4SzVnrvonFHIf0wG8z+SL4I/cbCqPZZm9b7bTyQ4RkC/i9f9wfI9SFHbqkaA8qRlFU5EeG4aB5a/qwb2JnX9elR/GCJ4fWXkjUZ8URL7rauOvMsO8rxuD6IPN5P5FU/guI238Xrwa78Ix2SfOGr/oQq6mxG3q+wQtMvFftKrPc+O1HyEjytIhdqCLLi2ih7y0opuhGfkjYRG65jfoWrOG73qtR5G9d7rjKIJSKf9kpazk/OYKYb1j7Vy3NXUMd8wB3k4jLS37GR/O3tZD72J4yAuoxD5lmRzvDZXc14sPUSPGCIPH/R6zrejJ7Nd8XatPI6c9GyOS+06dHfx/IOle5FFvfPjV3Z6Pq//vEzma+Xw14o7fJunR9Gp7rdt3UyQlsgrr7W7D2nDolKgsXYvtGY7r+uIkXxuiArnvOBSb/noNrK8eEMX0leUsX4NR9UvLofjqDib6X2tTLd+J+cTrV7VVbwP+yd/F/l9b14atOsQ54t9FZyHetRbXixxvO7HFaUjnV3t8Qwcaw+2ug4MJrbf3cR+LKvgdaOGnc6s9o4Wq/eoa7982drE8tsC7J/CJHJ781+vovyNh5jv9PNGwo7KKIJOHMlxaxnogd1Y3guNLyFv6wDns9Yuji+j2iMcNcDyNm/nc1BTO89vO7AC5x/M/gr0RwumML9wPrfAOEUHXumnqDApRggIASEgBISAEBACQkAIfFYCw+RhHVqxATdXyov/9iROeH3tHqhLc3kMZkMPTGruHITc80M+2RfFMVz5YwZTywch8FECzoYtMF979s/QNzZwZfrRNB9+1n5LOuPSuxD1o6umQ7U9ujDk8BECvFD9XnqIlv7qL4h7ZQ89O85PXMc8NXcMud769W8jYFSS8SN5ysfTTeDzelhPX73p8et30uP50oP/g6osUr9I6DlGxcbNuRoxd9x+GzQ3Vvw1x0AVEsFB9R/asuW/Rnv+8E/eFxqd9AymTl6I8AfuuQpaEE/P/rGeL4Jqj33DlueR/hePvAGtbaUHE8ZHDkb1XZOLb7wbobdfTI84n2I+knCIH4MezrtL3tiEM9zql8Euv+Tk8tWKb9z9HD4++uSL0C0H/VB77izofffdBp2VlwA9xuvHEfdFHeSK/aLISr5CQAgIASEgBISAEBACw0LglHpYdeoXpFrVLzF0u/vRiI/vkPkwiB4Ya1gU4pNS4qC2wT1eMOUgBD6VgK+fe3TaWrm3zNl3DNef+pa8LSYJ+aTGREA/82/Wf2otQjcwqK7jjtpGNLJT7UX85HVMBna1RzEhMREBg3uvQxfRWdWys8/Dqjz96r2pbTXcE9g9wD2ZxxqHkbEcf4lxseifwe84nFW9JZUdMoEgR0JvF/dmNrZx765Pex94NMdDajznfe0tEcfMX33dp9/VgiR1zdwDOuD/9BGnN4chXZya9+IibbCP5cE9ZrlaRIB7fZ1O/g9Br37ZLiKMHuPPna/Kv7+nCZ8aW9guD7ci68wR9KimJ3NvtfVz/1KX1pDPr+Jh/fzs5EwhIASEgBAQAkJACAiBU0Dg1HpYT0GDpAghIASEgBAYOoGzz8M69LZJSiEgBEKHgHhYQ6cvpSVCQAgIASEgBISAEAhJAvLAGpLdKo0SAkJACAgBISAEhEDoEJAH1tDpS2mJEBACQkAICAEhIARCkoA8sIZkt0qjhIAQEAJCQAgIASEQOgTkgTV0+lJaIgSEgBAQAkJACAiBkCTAH6M9QdOMRr4XVa9+G/cEySVaCAgBISAEzhICBvU+4rOkulJNISAEvqQExMP6Je14abYQEAJCQAgIASEgBM4WAkN6D+vZ0hippxAQAkJACAgBISAEhEDoERAPa+j1qbRICAgBISAEhIAQEAIhRWBIe1h9Pv5Gs9/vD6nGS2OEgBAQAl92AiYTbwPadxW+7Dyk/UJACJyZBMTDemb2i9RKCAgBISAEhIAQEAJCQBH4TB5WzdMq9ISAEBACQiA0CGhvCRAPa2j0p7RCCIQqAfGwhmrPSruEgBAQAkJACAgBIRAiBOSBNUQ6UpohBISAEBACQkAICIFQJSAPrKHas9IuISAEhIAQEAJCQAiECAF5YA2RjpRmCAEhIASEgBAQAkIgVAnIA2uo9qy0SwgIASEgBISAEBACIUJAHlhDpCOlGUJACAgBISAEhIAQCFUC8sAaqj0r7RICQkAICAEhIASEQIgQkAfWEOlIaYYQEAJCQAgIASEgBEKVgDywhmrPSruEgBAQAkJACAgBIRAiBOSBNUQ6UpohBISAEBACQkAICIFQJSAPrKHas9IuISAEhIAQEAJCQAiECAHT8LQjgGy8vW3Q/Rt2QRsGfNAgjjqdMSYZnwoKCqGZ0TYVcwwJDCCio6ECumVvNdQWnQjNKxoNjRyohJbt74Mm5+dDU+PDoLqBXmhNGevVbs2BPSYvCWoxsJz2QyxnXznLcfFsnd7A5/rc0VMRkp3AfPs6qmB3GNMZHmeH+t0d0IMHmqD6qBRoblY0tLdhO3RXeSu0r18PtYaRT8nkYthxdnaP19UAu3x/HdSSkAcdkRUDNQY80Ib9O6E1PpY3tpD5+Tp53u7tBxDvCrJHjLGpsIsKyCs9SusPxg/0tiB+9+a90FaPF6qzR0JT88dASxJZz8bGLth6qwOaqDgFPe2w9+0oh0aOGA9NizNDe1vJe/eOg7AH6xfH+hWr+qVFWhHf18Z+2lnOfs0q4XhKVvF+TyfSVR/Yx/yMI6DFozhumAuCjnvweXsQX3dwE3R/Ddsf1JFTSg655Y8kb313FdLt3FcLjctlO7MTw2H7e8mn8SD7K7GE/eeqYXvKytlPjNXp9HrmWzKF5STFcHwZkZschMDpIuBHwe7ORmjpht3QRj/DtVql5HAeK8zjfBtu4TynxesCvD+4upjPwT7OG2PTopDEoGd+3Y3q+ijj/NXGaV5nied1PWlMLtLHhHE+8bl5nVXs2ozwijZet1GJnKdHjR7L9LycdB41j2/dzfmnq4/lRo4Yh3TnjOB9wmxkuKupBuF7t5ZC24K8vrMK2d68XKa3KXdQ0M/yOxq2IX2/g/NCsoMzkUFh8fWp+2cZ59vKRs4/1jRe/5MKs3F+jLovDLiZft8a5lur7iNRiUxXMoH3CYdJFaDmfWcz74NOdd9Kio1DvmY9+6Or6RDs9TvJw+/n/R2Bhw+GCN5XikZx3s2KZ/vdreVIsmkX78eeAO8LWeq+WZjC+4bW3mC/E+kr2thOe2Qs7DSHug8FydvZWIbwjbvJvX+A+UbHFyB8wtRMaJj+qPGFUDmEEgF1SYVSk6QtQkAICAEhIASEgBAQAqFEgEuVk24RPZQtZRuQ0zMP/h3aNDENGmHkc7G9ZA7slKyR0BMdgsrDdWjXGiR95InXoNaxC6E/z+EKr3Pr47D//Dg9efO/+2PYV07LgHpqN0If++tj0L68u6D/9d1oqPMQV+JLH34J9hYnV3Y+tdCzKC1q5Qrwirn01FVsWYT0pbG3QL86jkv/PVvfgv3c+1yZXnL1fNiRwQ+gr739ArRsP0SnUwU5HKxvcwdX5PPmcyXu3rcYCR/7/TvQ3IVs31eS6AEI62VGzz/xR8TvNF0N/dWPZkFr17E+f3loNezoAtbfkEoPXrfvQoTPHcfyYm1sf1vleoQ/9JvnofrMGKglnivygi56YO3juZJfu5QezdSSSUg3K8IO3fTqcujWg9XQc27iyjjSUwf7jX+wX7fWtML2W7lSDqj61faeh/D5Y0ZBnRueg/7haaa//N8ehH39pARoWxXb+djPn4Vtm3QfNKuY7VbZI+x4h96WPYhe+tzPoe/V0IOSrDzMmXn0EPgunor4iHqOnz/+awvsMXO+D73nejVOd+6CveK5buj8X4+Brn6J9Vy8jh6E6HSOM0MftSv6q0h3yYQcaKSZfGDIQQiccgL8H0DVhvdR8hM/4PjtVp6ucOUZLSipQnxn3zzopBLO+5FGN+zyVa9An13D66y9mPPonxfSA2rQ0/O2e/XrSPfS2zuhvWZ6Ut16zkOmb30H4dPzoqG12xZBn3phFbTFxfk0PncKbJ8lHTqjgP9JWvs207+0qhThXhPzj8zi/JJx17UITzE3QLe88RD0teVd0F4jbxBp86+GfXMMPcUjbJ2wP1jE+W31psWwS27lfLpgnBW2IdAHrdjKefL/nl8Gu32A99VAwnjYjttZj3FZ4bAPruJ97/mnD8FuMrDeMQWcf13x9ITOzwggfs+6ddAlr/wGGnnhb6E3zeM8E6XrhV1Vxvlr8aKVsH3Kw9rXTg9qY/gEhH/vB5x3k/WNsJ955P+gK6rJLSklG/ZFqeOghSlhUGcz67vl7adh/7kqCXr3DddD05Tn2dNNT+3rz7+I8BX7WE7Aw/tKclYtwi05N0GnJDEchhxCkoB4WEOyW6VRQkAICAEhIASEgBAIHQKm4WkKV6qBYDSyyx39Feh9f7oKmmFWz8Vqj8lQ/UN6WwzOHz+dK/Qb/FxZ1jqmIbwggSvbUh1XkKMnsDn1zd2I73XyfFcjV2a2HK48I41GxPt66qAb36OnoH8KV3g/XXAOwrUttv3uFthlm5xQk4HlBdWeIG9fB8J3btkKfbOZK/+v3jsb9qhEH/S9378HdeXcDP3Z7VOhcRbGV2/nCvid9+gZ2KH2ZuYHWV5+MdvX6XHjvM5Orsz9LTWwdRnjoSnt5KKtRvQRGQifed0D0Nu/xnLb1/8J9is1VdDmESXQWJvqIUsE7KyZt0Lv/vZcqKV1PfSdtaznnsY02P4A6+n3kNfql1iv/fUJiL/yW1dC0+2s9/YlK2DXRJD3g3+6AHaSneU3738B9qMv7YNWRqRCY4hBlzmeHoTmXexH9yhGODtdSGeJmAzN+Jx7m4KKe3ohPaHfuf13yG9GKst75j8+gF1TzvbmR3NcjZx+McJtLe9CDzaz3lHKU6GGzeE4Xjf6JPbbjfffjvTz52RBD73739A3G5ug/d5MaKRZAYAlByFwqglw3AaDSSh43MxvQC9/6Apoit4DLXvnEehzr22GRkXFQ4uSOH81qHmnrYueVL1OzTtIdeQQP4aexR/PvZf5RPD8lY/RbmzrRrgrhh7Csp28Pqd8ndfrFSMHEP/+qyuhbRVl0Horz9vYkQ37/h/fCc2y0zO64eWnYG+uaYdOcu+GVjfTQ/uNR/8Hdq53J/RXT1RAmyrboAnpvC/UHKqH3eniPH/k+kewrr/zID5sOsD7y+yv/hT2RRMjoTueeQhaVsd5JtVC/juX0cN70X//AfHnJNB+fclG2NWrWJ+e68i9Zn85whva+qH5OB456G1RMMadfxP0kbk3QoN+zqcbnnsY9gedudDiDN5nDrz3KOwdrnHQH/96AbQg0Q7lrPjhR/ZDTyvvCweryMXnT0C6wYPau+ruaUZQ7b4k6Dd//G/QXAPbtXLFi7Cb2/xQHZPxsxxDkoAhJFsljRICQkAICAEhIASEgBAIGQLD7KrhCrep6nUA+v3PtkHD9NHQMcpTOv8CepRijv7W6DGxqpX34AJ88APO0CsPWkrhVNj9vXuhNU1eaPMervEmjM2GXVrO813NXHG6YrmSLTmHHthoK1eq215YhPTL1NsJdPnzYN9YwBV2Xyf36rzz3O8Rvj2zEHrdPVdCS9S3In29pbArWkZB51zGtW203Qxbr6OmjRgBO6elGrq7jiv0fC5UdQkjxiDc4OPKs72VK/6DW7liHjOaK9/VG47q1o/jOpwHuXhcXJla/ORjH/TcqRUrSjv8bXXlCdTpGO7r5/kDTq70k+2sYEsz2/n62ldxpjvyQuh3/n0+NFN9y93b0QDb6eVKu3jubbCT7Fw/aQ7RpPzzET7Fz/x61Lfsw4xWhDsyiqBFPno4tu+1wPbXssEjx5OHhXgQ93kOR/Apz5Jqf6edti2K5Zr15B4Rl4ViphXTo1K5oRJ2Xhzto+sQ6DiAoHdXrYKuWx4OddPBrZt7cSrsSCv7CYYchMAZRkC7TvR6zgf5M3ndxz25GjV1drmh5vwM6Jzrvwm1ZC6BvtjN6x8GDvT4FRZSdeo/Hn2NnLd3OCYj1bTUWGiwnx7IXk7LuhHqLTEGThe6JDURdKi3iLQ11OI8YzLnkbAwegxt1jCEO5JZnz2tnbC7nby+vU0jYUc5eD2agvRg5lfsQHj/FM6P9kljYd94fzQ08zV6UnuOmp77u+mR9av5JDyG9yOzgRyTsnh/WN5JD6yri6Q7ylnvCTGMN0TwvFQn6+1q6EK5XjvvtxffeS/s5Ojt0H0RWo/B/MRBu6+6GrcirryeHtKJ558HOyWc+a99bx3s9u5q6KO/2gKNjImBzrjyLuiFo+lJTR19Puw7osm5YjnvBwj88KBn/a1hnPeKkl5B1MP/+3OoJUAODvW2ma+lkRMi5RDSBI6eIUK6sdI4ISAEhIAQEAJCQAgIgbOPwFFrvZNtAD1OekMiMsorHg2NN3OFmZ/PFVOY9l64ky1u8HyuFM3h3NNYHNGMmBXvfwANRE6BnhfBFWEZkx/2HPJ53WTkSs/t5QoyqOPKOTw+BedlZnLJ/kEZ8+2bxXLcPqb3JXPFPSmZm2ha1tKj1pVJj2iEWjFafOTj76enjTs+UYQ6MH6gn56IsOiPd4/BTq7jw3nmzvWrcF69lyvoBQ7mezTegKsR6Ta/9jx019YIaI/yVF5+06WwE8PJI6j2EOkG+hDesPEF6H8+8Bp0QO3hzTv3WtiXp9HDuL+dHlhrdDHCi/LowWiuo+YmFCHcpDy2Fgs9Ap5+ctR4kP7hpEG2x+djjNlHT4JRzxS2cHpWUhLake/LS1dCc9V7fkc6uJeuQXlcEPk5Do0V+3DWU+9+C/q02qtrLrwQ9vlFHNeWcmZuspJvavZcBrQshZY20LOktrIy7sOj+navIzEHYXmp3DO2tI3jKi02CuHmozsWoXIQAmcaAc5jAT+v3wE1n/iPsUf1RLUPBjivdB1ajaRPb6dHLnEU559J2XEIdze0MCv1os8je0VZHx4/TKLdAKh6FXEkXqUPULX/+AyeZlDxWgHqRG3+0tKxMic+qtocqZeWr5onte9KHJ1Or9XjqCKC2n/EBit+VIIhmsEBdb/ccwhn+DL5H8xJY+lRNgUPIryvdRS0aFwWNFu9rSHY2wG79B9vQ/N+fBN0pPIIw/i0g2p/f2cNYjek8T+Xk0faYYer/wT2mHjfWVfJ+/KI8ZyHPy1LCQsNAnxCCY22SCuEgBAQAkJACAgBISAEQpDAx114J91AepaSMqfcUZy8AABAAElEQVQhp4uvvwqaYR70mX2uEoJ+euA86peW/DZuShxQK2AtU+0XqaKz6cmzvbITUcXfzoTae7j3RVupRsRzRahv24T47UuXQNOvuQSaMW0G1JHB+h9oYblGlUFELD2q8y67GukujeOK9PW3WO7Lr3M9cOX8NMTnFZZB39nvgCancs9Uktq7VLOLe4V2rmN7536XHkRdHZIPHmJG5OOz6U26DscvzIYd6+CKVK+jZ2PwBFMYPiYWTIeeewn5RCTlws4M0oP412cOwL5oHlfScdpeomR6iudcXoL4uER6nnPzuPKNstYi3JROe+6UCbBHJzK/1U8/DXuN907oOSX0rEaE5cCufOt96IGsy6AZEeTWVPYm7FUWL/SqtBioTfEwWtSKOzoP4VnGddD8yQVQ6yr2A4yTONgd7K9p865ELiXJ0dCcUeSYEc9+bCrXCuF4salfbkkfRc/qB7/fjASewHiocszoDNHZsKeNHgc9f0o4NG35W9B3d+2BJjkmQjPU3q+TdKAgLzkIgZMlEAjw+nT38j8yvXo3six9l/+R6SjmPJOewevXrDyAfi/Tud2cV/3qP0tuN/ML47SlO7Din8jv3b38T0rcRF6HF+TRsxpU9wGLnddN0gh63g5WteC8IvUWlqpuNS8m8HrMyOF1q9/tRLrO1jZoeFgntIoORF3BAv5nK9ZZj/CYUduhdTVzoPZgNXTPCFZ4vvqlLqvyLLvc5OL20gfb76Ht8XJescYk4XxbkPO5s5bldCaTV3kpOWWO4f0gOpa37exZrEdtzSU4P8XTDa0w9kKdEzhfR+lZrs9Lrtp/tLwecnd7eL9xWMnNoH7xqql8DfLZsasGWrjgOmi0hfNzcIBcCi7gDTFh9EzEzxiTDe0q3Qh9ewX7Qad9Z0V5zPtVf3v7WQ+vx4P0/cru6WiGXd1Bj+5tt58LO8HL+83Ly95V8WOhcgh9Ahx5od9OaaEQEAJCQAgIASEgBITAWUqAS7VhqrzewOxsDnq+tN8M/rzZB9W3ObetfRtZ/ONvi6BpU7iS3F2YDjvcxK+BWk1cYUckcWV53Q/oeYvMMCNdzR6uIMPUb05bHNkIn3UxV6jrXqBH7/f3vYjwZrVHyKj2bM6+4ecIj1HfJm2z0VOYEMmVcEox63Ox+u3o595YhvRv2LgSn3fZDbDbVzwB/cX3n4I61ddGHbFcKd5w71cQPiaJHoCORnK1WNk+m/IoXn5/KtKFpYVBexqaaKu9qEblgjNFJCC8aDK5nH8BPaB2tVeoactqxB/gwlV3np++P72ZHvOM4kmInzNvNjR+8O0GMHWBXq57bPFMHxVJLqn5bPfsq5juvWcfw4clwbuhF4yeAZ3USE/iH79xB+w25YExjaQH8/KFX0X42Cx6NptbyCVMz3bHp49A/LV3joTaEjkeStez363hynOA2KEf9MrDnJCej5PypsyDTslkvlpOwQA9FAY1Dm0Wxpst7K/wuEIkzc6ix2F1O+tnVPmbLayfzab6OTIZ6WfMnAvtWcbx8swGnveNufS0OuStAVoXiJ5SAnqUZjDQI1m69e+wF93I+cys3iYyYfalCF9422XQPPVeTq+zBvaSh38M/eu75dA2H+ezX9fcAvvuuzjOt3+wFvbLS/ZDrUtWQZ8P53wz4upvwf7x5aOhuaNGQdc//h3ozYfoQU0ZPR/2PecXQONSsqFzsp+FPvz/vg1t6PZDM+ZxPvpFOuf3aB3PSzu4A/H/vOdG6KEA57txN94DOz+dntPehs2wH/rP30HfLd0LDab8FHrw+vug376W89yUkZWwn3r+19An/tQKtYwmx58uSIOdmET+RTOnwP7nT5jPX+iI1SVPJO/7LstCvL63Cvry7x+GPrtkK7Q9nOVsuJD1/ul9nN/i/M2I37R5J7Qxfib0uhHkbYB1+GBiu8dccSFCnv+vv0Lvq2+CGiPpGV14+y9hp9vp6a3bzvv5kw/9CeFL99DDumsR50ffg99E+Cz1FoD5tp/DfvA+jjNPTzjs1JIF0O9cnQ6VQ+gTGBx7od9UaaEQEAJCQAgIASEgBITA2UhAf/gbiHSnHaf2HrW3xOfzHSMVV07eXi7x+nqYZUQSV2T0Gx0+VX3ru9fZjXy6XUzPsz+ZtV7HM40mpuh29iCRtjcwSf2mvd7TiPB+I/f4hNttsLW9pjrtlzPcLM/jNSI+KtoONahf4HA2tsBuc3EPkNZag5H1iE/JQLxD/dKI28P6+ExcUUcpD1lQfbu+sdmF9LboKGiU8uy6u+pgN3dwZekPsD62cKZLTObeLJtqgLePK213gO0KC+PKVvsBMZ36pa+B/j7k6+zlCjxKvR/U6+beIG+Anj+Hg/loq5UB9UtdzT0MSYhVK2k/zxvML4YeTdPRmycDTNfR6UX59giugG1W5hcYIPfOpg7EG2K49ykmjPXs7e5EeGtrF5T+ysNfnneQQ3o8PRw2YtL19zF9r44cosPooTzi0aeHpLedPAJG1sNoYs4u9cs6Wjko9CMH7f2D4ZFsh1GND3MYPdWqmz9yBse7t5f16tHxvKgwK9Lo/exnZyfHvTtIjgnx7I+ebnIzq3EbZmO4Tu316lVveXDpySExkudrHvSPVEQ+CoHPTMBq5Tg1m9W4O2EOvL486rptbmzDGbzKj5wck8T5Mi6K14NJTTh+NR90NNcjcUcvZ9pgkOVHxvC6T4jjPOVsosevo+eo+4X6j15YfDLySVN7uwP9nJfbmpsQ3u3h/SMylvNOYhzvE2Yjr9t+VyvS1TVz/vGp+064yjc1itebQa/NK2xvi3o/a7+O/BLSUpBPdATtYD/n/8Y61r/Px/N1JrbLEcf6JKl5Naj2oDY0sT69Hqa3xLJ9GXG8z2j19vYx/9Y6ttMV4H3KEUPPZkIC7yfmILk11zWSh9ojHDCo+46D9UhLZP5GNe93OZm/38zwuKPuG8js8CHgZ/5t1ezPLi/702Rjvyem0HMeYeV873G249TmVt4P3APsB+39vYkZ5OggRl1PRy3Td3DGDgQ530dGs97JybxfqduDVi3RECSgppAQbJk0SQgIASEgBISAEBACQiAkCAyTh3VoLAJ9VUj40p8fg765oRTKdRw+qgM9n5kF82Df+8OvQAtjubLiOu2j6eWzEDgeAa7k1zzCcffMuxuRuPEY/1xIyBiJ+Nu+83PoObn0FBzx4B6vLIkTAmcXgc/uYT272ie1FQJCIDQIiIc1NPpRWiEEhIAQEAJCQAgIgZAlcEo9rNoe1r6ePgD1qj093MHyUcZ8jjaZ6VG1h9PjKj/081FG8nnoBNQe6x7uTXYPcI/VsfZOG03cS2cLo2fVMrgZeuglSkohcLYQEA/r2dJTUk8h8OUmIB7WL3f/S+uFgBAQAkJACAgBIXDGEzi1HtYzHodUUAgIASHw5SIgHtYvV39La4XA2UpAPKxna89JvYWAEBACQkAICAEh8CUhIA+sX5KOlmYKASEgBISAEBACQuBsJSAPrGdrz0m9hYAQEAJCQAgIASHwJSEgD6xfko6WZgoBISAEhIAQEAJC4GwlIA+sZ2vPSb2FgBAQAkJACAgBIfAlIcAfHz5BY00mJjMa5dd6T4BKooWAEBACZxUBmdfPqu6SygqBLy0B8bB+abteGi4EhIAQEAJCQAgIgbODwJDew3p2NEVqKQSEgBAQAkJACAgBIRCKBMTDGoq9Km0SAkJACAgBISAEhEAIERjSHtaBgQE02efjb7CHUPulKUJACAiBLzUBs9mM9mvfVfhSw5DGCwEhcMYSEA/rGds1UjEhIASEgBAQAkJACAiBDwkMycPq9/tBS1NBJwSEgBAQAqFBQDyrodGP0gohEOoExMMa6j0s7RMCQkAICAEhIASEwFlOQB5Yz/IOlOoLASEgBISAEBACQiDUCcgDa6j3sLRPCAgBISAEhIAQEAJnOQF5YD3LO1CqLwSEgBAQAkJACAiBUCcgD6yh3sPSPiEgBISAEBACQkAInOUE5IH1LO9Aqb4QEAJCQAgIASEgBEKdgDywhnoPS/uEgBAQAkJACAgBIXCWE5AH1rO8A6X6QkAICAEhIASEgBAIdQLywBrqPSztEwJCQAgIASEgBITAWU5AHljP8g6U6gsBISAEhIAQEAJCINQJyANrqPewtE8ICAEhIASEgBAQAmc5AdPw1N+PbHo7qqDrXngHWtbvhQZw1OnM6YX4dO7MmdDRyREq5tMl6HMjom7fZuii5TugjrQ86PRz50DjerdCV653QQtmTKNmREGD7nbozlXvQesiJkPnnzMCajd4oNWbNkDXrN8JbQ1CdEaTBR+mXLAQOjbbAe2qZX0aLKNhj8uIhPq6a6Eb1h2AGtOKoRPHJEA7yt6EvrO2Ctrda4Q6Ysln3pXnws5wmKG9rXuh69bsh0aMmA6dOCYZavb1QPetfRu6e4D5XDST7fPU7UH4+2+zfa1+9oglg/WaM2sG4osSw6G6IOPdnYd43mvLoJUu9oc+OhF28YwLobMS+qDr1nwA3XmoE1oy4yLoxAL2w763VsCuzZ0KvXx8FtSq72d46Rbo9oMsZ9RschgRR/7etgrEv7Z0NbSxrRuq01mhsUnM99KFY2HHWchVJTqxBAaQpqOK/frC0o2w+70+qCkhEzpx5lzoOVnR0GCA46dyC8fXlnbymT2T4yKstwrp3ltEPnUeXhdBhB456PUxMMapdk8cxfFSv5nX047eXMRfOHsUNNrG8dHfXQO7vp7jzZ7O+qU69Ag/cmCJ/d1VCFqm+vVgF8ePLpLl509nv11YmIR0BpWN31kP+93lq6D7q5qhOh2nEXvEeNiX38DrKyWC/XZ0LdRJR0SNt+4a9v8by7chzullvjMvuQZ2hrERul7V+8AA+0XjmDd+FuKnT5kAjbGfsGSkk8PJEQiq+aeqog4ZuQIcR8VFHD/DdJM5uUrK2UJACJz1BAxnfQukAUJACAgBISAEhIAQEAIhTWCYFr/0TLVXlAHW6ufooTJeRU9QrInPxZYweiajbEMs1k8PiquzDfmWlTPffl027Hlm5tu49xXYb71Gj48zeSTsjMQwqLt2E/RfL74NNRXQAzZnagrs1i3vQpc+Tc9RV2oO7LAIemiMRnpu966rQnhmBM8/VEpPX2lsFsKLIulZXLOB5azYn4rwG4vpCWvc9QLsp1fRI2zxpcEON5KHu40e1KXP0mN9yS3zEB+oXAl9+5Ul0IwFPG/kSHrgwlylCH/ltTeglVbWe9ZExlfvYXkr1lUjvmh6NtTVyvDtu+mJjJo8G+GpEfSwdjXQM/vmUuafNY3nWd3kXL7jVaQPG0mPWmvVTthbytzQjKlXQH0ulrv88TdhV89i/aaOYjsS+2sRvnnpU9DXmuj5dZScAzvDXwX9x+P09Jb7mX96DD14Bh/z83SWI93WWvb/vFyON81DiMhPOQT9XoTWbyffvz61D7Y52w5NUJ5aj5PjsKVqN8I7UmZAw7qY/pnV62E3VkdAM/PTqUF6YDmadTp/XwvCD1TRY+yLnwh7bJoNGhHJcvsbyfPJlRsRPqA83vklubDHJHNcuZqYbvcupsuMPg/xqQ7Nw0wfpLf7IMIXP7oIesBNbhGx9FAHvN0I37XlWahfdzP04rQB6JvPvwNdVtkKzUzl9WUJ8DoMug4gfH1lHvTyYo4/i5HlIPBTDkHlYfV6ehHbvP8D6C7DNOhMPctvKeN4XPMS+YddNRrxUQbGt5XzelzmpT1rGrkmRZITEsth2Ai4OyuR1+o3/wD985scBxfffBfsAvGwDhtryUgICAGdjjOMkBACQkAICAEhIASEgBAQAmcoAbr2hq1y9Gilj7wAOV5wDz1sGWZ6evQGPh8blJ6oWL01EkkKSugpObe7H3Zt5Bhomtrj2a2nB6dkCj069U30dPZ0xyCdq74DmjGBHjuvl/XpVx6CbTvoQXRcfjfSfWVOIdRuoE/M4+mCXVfB8sNt9EAG1eY5d2ct4let3Qbd4Gf97ruD9U4NdyL8jSfpkUie9hXYN8xjOoeJHqHGMp6/YuUGxG+vpYeJOzJ1usJxbE9jHz2C7e3Md6CpAekTSqZA+2roodP8WobIFISPO597++742lTYnRsfhr5czXy63fTspirPss5CT2H6eO5pvPOe85He2kaP9Ttr18BuNedC585g/k0prGdxNvvDaiC/cGM+0pXE1UArmvqgZh01YE+DXTyK5weVZ7J8zTqEOx0s595b5sDOiabnzO/pgd3e2QHttVigJ/Ks6nTswAEPz9uxfDvOyzrvauiNV7B/os0k2dPGfnYFeNnYDTy/af/7SG/LYPsviaGnt7SOHsNR54xH/PX3cDz01m2GvXQjPdz2optgX1LsgGoe3/3L3oMdmz8TWtKzG7q7kjyLE3h9IPB4hwD7ta18LVLtM+VAr7/vEmheAj2lXhc9viuWLEN4zTt7obvHs7yDHfQA3/HNbyB8tPKwBr30ILs6mxDeoue4MZ24A5BebyDPOLW3+bLztzDcPx+am8ByG8tjaY++FHrp/ZdDU9R1WrflFdj/fPkAw5PYzpgxSbA5KvBRDsNAQK/m3aikQuRWnMfxHqbj9TIMRUgWQkAICIFBAnyCHDTlgxAQAkJACAgBISAEhIAQOLMIDLOHlZ6Yyr3/h1b+4K7FUKsuHjrziuuh1y6g5zBO7bVE4EkctJV+XC49jIk9u5BbeS1X/M276VsZVZiI8J2lmsfsEGyv8tTlFY+EbTe0QFf++XHoqzvpedKXLIT97euLoD0t9Li99OJvYOeNmQW9/X565tKi6Bnyubh3sNY3AvFTc+lJDLNo6wXuIUxIZ3hcLj2Mu5SneGw4TtNFZzBf60AdAlqa6dnatckPu7AoFdrYpOXL85QjURfw0UPc10sPdGNtKxJoe2kjbJoPakCdSNE8fm63CwF9reTT08bysxz06OraP3baRwwjPtsi4qDpJRnQpve451NfwPr3JuYjPFXtWdQFu2Ef2sz6jLmI/ZMcyf5r2f0O4n/xyKtQv535X3Tr92DnxJH/sR19moeVPNoPJOO8qbfQMxepPKsIPHyIiGe96T887J/1NSNqz3us/4hpWbCz0lnfNc9sg11XnA4tUJ5MGMc5+AeaELvnHXqQR1/BcpPjeH2teX4z4htKWF/6R4+dYTDI+rU38brIHP9VJE5yfJyPzcHxNyKR7ehq3I90OzZyAOZkFMDOTmKJ7kr2368feQHhTS4f9NxbfgTNVbxOtIcViU/qQE4po+jhTnx4DXLrV/+J4P9DTqoAOflTCNiisxE6Zdal0NrGddCPzx4IkoMQEAJC4KQJHPVkc9L5SQZCQAgIASEgBISAEBACQmBYCZiGNTcdPTZxKech2+n3zYYmm+mhScqi5ybKMtx7nJifyRaF8oqi6FN5Ywk9Lba88xF+nr0VqnnczKpeegPP6+ykp82X4mA+86+A3lC0FfrqOu4d9fmY/4CVnqbseZch/oIItv/gu9z7l3vTeIQnmhju6KNHsqeXeza9AXr4tL1+vgF++93T7eR58eSmeUj1FtZrVDLL3bCSHo1WBzkXRPF8+jORBQ5+ZzX0g6cfhq54n/nq04pg33braGikgR7YfjrKdMF+elSrV/wd8d/Z9g+oPpoe8xkLvwZ7TAo9XOp1twj7tIPexHo7oujB7Ot5BslW7aE9e1I27NraRnW6FRqRQO5O9b5Ht5fcItLHIP7Wm9j/+0rXwm7rVQ1QuZxI9AZ6iKPSuBe2o4P9M5AUiVON6lvuQbUX1OdjfToPbED82ztWQw9s5niz6tjPfX3kPObQuYgfEcv2w/i0g/q2fOueVYh9fTfzbdnPcoxe1s+vp2d1ZxXH9VQzeXxalgwjn/BInufsYv37vfS8Bm1q3Rqkb8ztZDl9fQk4PSmNPDwWjktXH/kmxOch/prrroNWbHsDWtvHfLQ93gj8Qg9sv6+P9e72cxz71dtJ2PovtAKSuRAQAkJACHzBBMTD+gUDluyFgBAQAkJACAgBISAETo7AF+JhdcTmolbjJk+Gam8J+MxVVS6aAQ89fW1t9IB6dNzL1zvAvX1avnojfYuOrFEISl9E38rom9Jh29s+vskyPD4H4ZY2erJ2Vy+BHW+k5yohkh7N6Bh62qLC/n97Zx5YVXXv+zOfnMzzCCEhkIQ5yCiDioA4oAgqaAFF69Dh2tbb3qnvvfb13rbvtn3v2du+traKWm2tFWeLQwUVFQcGkXmGAIEASchIhpMzPPr9rp1IJCaEoRm+/LG/57f2Wmuv9Vlrb/b+Zp196Pi5jUUbG8u1phOyr0S5q/pxzeWyZz5B/Jw5/pxr8hAPmrgP+sp2Oq7xscap8tDpKl7PNYGbN3At6fXT6fza9qNYyyYmtxCfk5fT8Rp+BfuREL0b6Xbb6Q6jIzIV6aOuoSM655ZRiCNjE6HeI29Df/S7j6EL5rH/6S46jymXzEP6XYvGQ1MS2e/kFNbrM+/BPF7H/ledQDZb3Uk6vgEajacSndgRFc1VoKmj6JDubuZ4DU1iwUOHWN5uJ/fcMdRfLCMfu498RmbHImNSYjzrjWDs8HBad+ys8XnNY5z5jELGTzz8V9Z3/1RoP/OLUicObEFcbtaENuw+gnjMAnJdUsRxiTG/3HW8eB32v7KDA3jNyGTEbD0+nrYJhzjPd20oQ/r0rzwAHVmYDfWF6qEH9m+ArtqyBzpqhHH8zbf1y0oPI73EvB/V5uS89aaPRnr9i+9B16VwYIaZX4RrOLEZ6SsOkXPUxPsQj03aDn3oSe4/GcV5M3kkxz8xgfOhLJrjEGl4mS+Ro2xnNkHj6FeYX96qbT6OYieb6AyHDPdAE8//oyUl2B+009He/fYLiP3jiqC5A9jO9ngjkzZdJhA2vwxXW1mKOo6V8frqsB1DXH4iC5oax+uYeVlMl4+ngiIgAn2bAP+H7tsM1HsREAEREAEREAEREIFuTIBW1Dk3kF6W0zhyidl0XDydfN9qe4cPNdBxW7+aDuDLf/4LsmZP5H327qJ8xNGRPF6cm45KXNpQpN/yfe73xtCB2l9LZy8lheqNoUM747bFyO97lGsqf/tv9yM+ag9DPRF0Gq+/54eIE6MYn4hNQ5wRz/oSczMRz59Ph3PpU1xTuWo9naxZM+/F/hkrH4T+/AdPQ6tr6YBl5NDRu/ObC5E+NIne0PHDrD82jg5idNxA7L/hX/pB3THkUVlCpyM1jf11u+hoemLohBUMZ3sLCgpQLsI42MdKg4hD5jfh3Wbtn9PL4+UOocNZaMol+tzIbzmYdQc+QLxs+YfQ9zbTAcvMouOYNZK84vvTgYuJ59rI/Ck3Iv8oG+tzHl+HODo2CRrnI5f+E5jv6+5VSP/ZYz+FPlrG49hCbOeAIXOR/s2b6eh01uGz1j4Pn04neXbD4zzOv74IDZk1y+6BoxEvmD8davPQ+Rw26hLERcMyoO4w14gmRXAt5b7V25B+tI75sh0c18gYOq5xPo5TsIHjd9jJ8RldxPzDBjKf07yXNjpch/pKl+2EHi/g/C/ZSSd0xbJvsB1mHGOG3oD4gS/PhM5fzPY9/ov/RLy0ms6uPYXnw+QFdyF94RTOsygHnbJ7F3Me/uKJh7H/+d+xvbYwxykx7Wqkf+tHHD9XB79whcynNuFgMz6WbnkduvSFT6A1HjqsW4sGIe7vZjsPHngG8fJvPA91mkXek69bhPiW+ddAc5M476x5ikRtzhuBmiPrUdefH/0x9Om/8nx0uDkfGj3fRfqiG66ApkRpJABCGxEQgS4R4J1Ol4qqkAiIgAiIgAiIgAiIgAhceAL28Kl/HR2msZFrxAIBOoefz88qgs3cH2hm7I6kk9RyVxxiPccPHkIVJcdOQOmvfLZWPom73fFIzBqYDnWbNWwuTwTiSB/VFjiJOOhg7HHSOG512NieQDOPFDBr+7xek89GR9Jvvr3fYH6LnKk2m93OHkRE0Wn0Ok19AdYXctBR8LqMgxAih5Mn6bA5I9gur3G8mpvokDU0Ml8ozHJO40xEGgfXqi7YzLWLgRYH1HBtMSzYnlCQ9fmbucPjZbutcQmZNaQeDx09q3jIvJ3gZDPz+8waRIfh3VofeVlvWQD0U5uw+Vb2SfMWhGbjSLbyYs5m80tarii239k6QMhgve+1iYavzeWi82q9RcF6j6y1NjZo3rJg/cKwNS8i3ByXspIdqPdQmamQzfjc1mPeO1qYRWfQGeK41TewHtI9NQ9cbLfPrKENm3nu8ph2tjiKZjzM+eI3HXIZx9hp1hj7DSeHqddtZzsbGjnzPF7jPLcAZ71BM4+bzdsSzBJVm7+B88TPadDST7t5S0V0FOepw6w9PGmtMbY4Onm8CF8kyvrcLWcu6wrSma21ygVbzhDsd5rj+HycWVWldJaLS1nOOkxLw8wHZzzP71zzC2mukKnXwXnqi+RfKBwh1tNgHb9NRd5IOsARZjxasLXJp/B0Al4v54XbzfE/fW/7kXXeN9Tz+tvI06WlQERULD5HmDXlGo8WNPogAiLQBQJt/kfqQg0qIgIiIAIiIAIiIAIiIAIXkMB5clg718JQ/QFkfOnhJ6Fvrt8Fpd/42Tq49qzf4MuReOf9t0AHmV+kspzBz5bQZxGwCFQfXoOPLz3zMHTFBjqm1n5L7capz776TiQ9cN1YqLVG18onPTsC9Sf2osBbL/4c+uy71VDLOG2pzaxxT75sAZK+MfcKaE4Cz/+WfPpwQQl01WG9oI1S5SIgAiLQhoAc1jZAFIqACIiACIiACIiACHQvAhfVYT212hG9Dwa4Vo/RmYDQQ7UbB8ZhFj/JWT0TK6W1JRA2vxgVMpZe+6u0zTxz8rmt7ZratvUq7iQBwz/YIX9Tn1mraq1V7uRRlO08EZDDep5AqhoREIELSkAO6wXFq8pFQAREQAREQAREQATOlQC/9n2utXS6PB0tp+siH7bT7VPG3kDAequD0zinvaFPPaoP5q0a4t+jRk2NFQEREIFuTUAOa7ceHjVOBERABERABERABERAN6yaAyIgAiIgAiIgAiIgAt2agG5Yu/XwqHEiIAIiIAIiIAIiIAKdWkxqb/OLRMImAiIgAiIgAiIgAiIgAheLgBzWi0VaxxEBERABERABERABEegSgU69h7X1fZbtvzm1S0dXIREQAREQgb8rAYd537X+kvZ3HQYdXAREoAMCclg7AKTdIiACIiACIiACIiACf18CnVrDaj2Bh9v/yaC/by90dBEQAREQAREQAREQgV5LQA5rrx1adUwEREAEREAEREAEegeBTjmsfr8fvQ0EAr2j1+qFCIiACIgACLjd7tNUWERABESgOxKQw9odR0VtEgEREAEREAEREAERaCHQKYfVekuApS2l9UEEREAEREAEREAEREAELjABOawXGLCqFwEREAEREAEREAERODcCumE9N34qLQIiIAIiIAIiIAIicIEJ6Ib1AgNW9SIgAiIgAiIgAiIgAudGQDes58ZPpUVABERABERABERABC4wAd2wXmDAql4EREAEREAEREAERODcCOiG9dz4qbQIiIAIiIAIiIAIiMAFJqAb1gsMWNWLgAiIgAiIgAiIgAicGwHdsJ4bP5UWAREQAREQAREQARG4wAR0w3qBAat6ERABERABERABERCBcyPQqV+6OttDhMPhLy5it2M/t1+ctTvttbplmn/uTQsHUEdt+V7oh5+GoJOmFUCjXIaQwWlv58AtvHsoV3RWGxEQgZ5JwFwYP3fV1/WoZ46nWi0C3ZSAHNZuOjBqlgiIgAiIgAiIgAiIAAmcJ4eVTmF1ySbU+vz//j10bZMfaj15u9JGIZ57843Qy4anQ89TI1DX+d3Q8Wys3INqX19VA500fQQ0JcYL7bJTHGpG+YrS/dC1G0hizCRyOfThSqSvXF8HnXLzfGhRlg9aX/IJ9KE/vQotuHIJdEZRf6i3+4JF+7QRARHouQRC9eVo/IcrXoQuffEDqCu9CHrLrTdDp43MZDq22oiACIhA1wjIYe0aN5USAREQAREQAREQARG4SATOkwdnHNbS42j2sV3x0ElfnwhNdTuhztgs6PDsOGjY3wT129kMt4v5bCE6s41B3k973dRQcyPz83D4/LeNw+nGZ4+H6rDTGW1uZD3NIcY2G+v3+uiMOq0lokFW2GQc4ZbcJkNd5SHUv+HTE9DCcTnQ6Ai222ea7W9kf4I2VtzaLuZz2Ey7/GyX338S9dQ3sFwozIrCQaaXlNDZXb2+AfkGjC6FDskYAN2/+UPoru2vQWPG0IENWmvKQkGkNxkOoZZ2eZDu9ZqGG6fX76fjG7QAOMgzwli14QD5NzVbnjn76XSTp8fF9GbTv0DQysfxc3uZz224hkOGe0v70Cybzc78Ljfb6XExDgfJrcnPciFTvdMTgYJWPpupt9HU29IKJ8fB42G9DjP+5qgSERCBThHg9erw5i3IvfYNXhdm3HQL4sBhXpcqjvAvQMdy05GeFcPzuFOHUCYREAERaENAV5A2QBSKgAiIgAiIgAiIgAh0LwK0nM5bmyJRU0LqIOiocWOhWZZz6uDhXP4DSH/2N3+AOobcBJ0+qR90z4a/QN8qGwZdPJX31W899Z+In/8YYvM46Z1NvPbLSJh/w3RofGgX9MUf/hr6xuFaaELOZOiSby2GjkqnU7DxuT8hfmrZKughJ53HmbfehTix+AXoqte3QT/dtwJ66cJ7oDf6iqHLfrUMuimYCJ16423Qm+dMhMbWboAu/enj0I8PHYXW0DC0JRSxHy2OYGQ29vdLKIaGbYegx2vIo7iea1WnDktFuttHyzAUYH93vv860pc+zPbv92cgnjr7VuiC27jWrGbNQ4h/88f3oCXVdCyzJnwJ8f0350I3vvRT6J/f5Vpee+JQxNffugR6Vb+D0Ecf+zN07Q460hGR+Yhv/c7XoDMKY6AHPmK7HvrVcsQlQTq8tpRRiOcvvh16/bgU6M63H4T+bhnXSleHEhBfPv+b0FunpEP3vsdxePgRjtMxG4lOuuFO7L9t7rXQjBjyQqCNCIhApwiEG6qRb9fxw9CySVOgX7+O15OGHbyu/uwT/oWnfwWvR1kxcZ2qX5lEQARE4EwEeOdzpj1KEwEREAEREAEREAEREIFuQOA8O6x01HZtXIquvXDPs9AI8z4+bzafxL9851ykT553DfSDh3dA3/dvh661D4QuubIQGlG/BuqNi4V+6RvfgY6Mo6P3xpN0Kjf134x02zY6a4GxMxAvupbfqq8qLUH81otroe6xZdBNeyqgV3/n36EDEumwJqTQuWwopqN4yaGR2H/9osugKW6mb3hxK+K8hXdDL3Wyvk+2FiPeuJHtdm16BnHEaDp837mTDmrtkY1IX7GRazxbfT86nbkFOdhf20AHcuPrryBuSKaDnZjM+k/aucazcj95rnqCXCYsprN4VQPb9X4ZHeh31gdQT2h7FHT0FXRUr01LRJyYmQO1Ve+H7q+dAF10dx40NiYJmpufCY33sJ5r5t2BeEx5FfTI1pXQ5Zt2QodFsZ/rV6xGPOHuf4Pem1oJfevdYqi9lk5N2daXEa8s4XhMm8P+RAbp9Oz/kPvXpXJc/Cd2I//YeXTAs9PIMSN3CNKToloJI0EbERCBThMIB3jdaHTRQQ3G8/yy/jOJ8CWgrho/z+fmIPN1+gDKKAIiIAJnICCH9QxQlCQCIiACIiACIiACItB9CFgPxeepRVyjlDNkIepb8ONZ0CzzlgC7OxJxYgIdQa8zDfHoq+iUvbz+BOLL5nDN44AUrnWsPUhHLCqWT+4pA7m/MJOO3obwMZSz+ekg7l1N5255+dtI9xhHL9jM4xaMpTN49CC773QMRb4hRYXQfhHGgTO/RFWVTGcvPtGD/QMH0FG07aOTt/5VrsHc8NF67I9x0lGoaxyJuH9RDrR5G53jwXcwfcgwrs08Zi/F/ojNZ3b+IhL6Y39WzT7oe+tqoJcsYj+iT9ARrjPfjq89sRf7V6+lw32snG9tiLDRGWlKoTM7YuRE5Bsx7AD0N394Hnq4mvkumX4/4kVX9YMWJK+EPvrQq9DkvPHQeXPJJyqO7XvqkSeRvuUwxyXUXIc44uop0LoTHMfG42MQT5pA/vnuIyy3ic63w6w9rTiyAenvvrwGWm/GMcJOzrFJbF+h5zbsz0oaBn37Nw9Bnw+Q++w7Of+Ss+ggp1pvSUAubURABDpFwPzFzOnk9dBdyb+ENJvCAfM2F7fNjxSv+zz/N9OpRiqTCIhAbyMgh7W3jaj6IwIiIAIiIAIiIAK9jMAFefQNh2qB6fgROmZh895Nu5cOZ8g4Y8FjO5Hvg1f4iylZE+kcvvfp+0hPck6FZpn3qjbU0YnduWkt0sN76UweSuUa1bzsHKT7Zs6EpkT1h8bFcb/DxbWTif24BjOu6iPsLztGZ3D9qo8RH46n05mcmY041sZyUSEeb9uWzUiPcNJRnnQbnb2J/enQRptv69sj6KAOKkhH/tIDLLfvMNfqrmni2tDyYjq11YF85Gu7sTuikTTYOLJH4wchLsxk/RV7WMLuoNMaGT0YCVfN4lrSyOlZiCPN44kj1rRrMJ1GXyUdzhvn0omtripB/u1vUetmsny/wulIv6/fKGjxx3RQT+zYhfjDyoPQvMJJ0Imzk6B1Bz6Bvuaiw+mNJreUQjqvn65dh/1VrqPQXcXUgal0opOzxiD9qgUjoBmxpt3We1UN5yGZdG6DbnKc+dV7kX9s8RbogXo6t1V1AcRyWIFBGxE4KwKOqBjkz3XzunZk21bEK1afhNZvew06KIXX4ZxEXr+QqI0IiIAIdJGAHNYuglMxERABERABERABERCBi0PAdX4Ow/teTySdyZCPTuIzD316WvWe/nTeFs2lQ1e6ai/2D7x9GnREHpuT+e7jiFdvyoXOodFmO7SLT/Ir3/g10lOi6PzNWrwIcWH+QKgzYwZ0+U8fhr5QWgFtjsmEjp21ELpk+hRo6X46hc8/xXprzPtiZy16APtnFPWDDk16Fvryy2z3kNlfQnzNWDq2zz/8Z8RbzU9FeQew/jsz5yC98DKurVz+yAuIVxw7AQ176RgOvZLfwveYX46KS+Ya3xw7ncOUIcOR/6ZCOqmOUCPiQDrTMxOTEadlR0En3HQI+vulz0APNQegEcMuhy6K57gde+0VxCs27oE2++iITJp3H2JX+Q7oc0+y/7sbeNxU46QumDYO+1OOH4Cuf+4d6HvrQlCbxwfNm81+pKZnIK4tYPzLP/wWcbCxFlrqIs/Uy9yIU4ZeD72s4lfQx15YCS2r5v50wzkmnfPvwNt/wP5XPqLjEwrRcb3hrgKk90v0QrURARHoAgE7ry95oweh8O6D66GP/9eLUHf/idC7J4+FpkTLFwEIbURABM6JgK4k54RPhUVABERABERABERABC40AXv41L+ODtLYaJw88/699vKHQ3TUQkY/V7H1G/FmTWvQ/Na8w8n75lONQdWhsHHmTP7K4reQ/v5qOoHJk/4T8YRsOmxO80ta9NdO7bLqMe//M7Wd+o165nA4eDzrt+RDxhENtUHhMGskrW+rh0JBts92ej12096Q+XH7ln639Nc8F5h8AXM8VPa3TXvtasHA47X0r6UgP4RNu2x2Oq92O1vQOh4mtsqZta4u06xggP1qbXfb/nFP23G11sw6DciweUtB2+5Z/bMb7vYg59ORXWvQonc3HIT6K6uhO8J0tK+fOw3x5H5c8/r5+g2XlvFs086WDrGjTtPh9jjiYNqIQB8j4PXyLw5uN6+nne6+uV4Greu9df1se93rdIXKKAIiIALtEzC3LO1n0B4REAEREAEREAEREAER+HsS4KLR89QCy0FzGsero2qdxmltyWc5jcYptNK90en4mDd8FjQhmY6Ay9WOV2bV42L3OrordzjNmlDrgJ9THqfVcW2TwbTXGMVtdn4mtJwHy9r8zK4zfewkRpvldLbWYTmP7FdH7XIaTq3l23wyPDsaV7tZ+9tR9wJ+ri09dqQYB9q1i2uCgyGuSb786tFIv8Q4q1ZrOq6f/XZ21GGrQqkIiEDXCVjXBXP97HpFKikCIiACHRPo6F6u4xqUQwREQAREQAREQAREQAQuIIHzuob1ArZTVYuACIiACFwAAl1ew3oB2qIqRUAERKA9AnJY2yOjdBEQAREQAREQAREQgW5BQDes3WIY1AgREAEREAEREAEREIH2COiGtT0yShcBERABERABERABEegWBHTD2i2GQY0QAREQAREQAREQARFoj4BuWNsjo3QREAEREAEREAEREIFuQaBT72G1m/ftWdotWq5GiIAIiIAIiIAIiIAI9AkCclj7xDCrkyIgAiIgAiIgAiLQcwl06j2sYfMb0Zb23O6q5SIgAiIgAp8lYP3lzNLP7tNnERABEeguBOSwdpeRUDtEQAREQAREQAREQATOSEA3rGfEokQREAEREAEREAEREIHuQkA3rN1lJNQOERABERABERABERCBMxLo1FsC/H4/CgcCgTNWokQREAEREIGeScDj8aDhbre7Z3ZArRYBEegTBOSw9olhVidFQAREQAREQAREoOcS6JTDar0dwNKe2121XAREQAREQAREQAREoKcRkMPa00ZM7RUBERABERABERCBPkZAN6x9bMDVXREQAREQAREQARHoaQR0w9rTRkztFQEREAEREAEREIE+RkA3rH1swNVdERABERABERABEehpBHTD2tNGTO0VAREQAREQAREQgT5GQDesfWzA1V0REAEREAEREAER6GkEdMPa00ZM7RUBERABERABERCBPkZAN6x9bMDVXREQAREQAREQARHoaQR0w9rTRkztFQEREAEREAEREIE+RqBTv3TVaSbhELL6GxuhgXCbkg4nEtxu89vVTnubDGcOw8Fm7GhootodvM92e7xId9oCUL+fx3eY38R2OZnPbmNDAn7TLhuP7/WwPdb+UMCqh8dhba1tcnkiELhd5j4/6EfcbONvcHus/hgOgWbWF7ITs9vNcuFgk2lvEBqyONnZHm+E6ZfBEw4zX8DPdoUd1m9/n96/YLOpN8TjtfTPlG9qZHtb+mWNh/Vb4o4249GmXDBsGmpnPqeb7fSy2bbmZsMjwCM4zTh7DK9AE/cHneTldbfhHySv5mZT3rTLZbXLao+ZB8FQS0/A0W439UZQrWLY2akN62tuIMdmq7+mrN1h6vdS7WG21+LiMPtbj2vVx/FzRnBc7KYfjWY8rOG3tR0PO/f4DbdAm/46LP7WvDL7g0GOj8ukt44q62uZJ4Zz2Gbmi4/9spl53eRnu9uic7qYz+1muZDf8Aqyv1Z/7GbeeyI4X63To2197ccWP2s8mNPhMuevmz0LmnnnN/OupT6HdR6wvc7WgWnJog9dJ2Bdl5qteWzNR+v6aDPjZ+Zv63WQ49IyHNb10syjgL3t9dlq4+n1NQc4P635ZjPX4QgfryuBRs4b6/xszWfVR3WZdrscrM9vXbd5uFOZOM/s1nzysv3hAK9nTc2nnyd2c354zf9Dmnen81YkAl0lYO68ulpc5URABERABERABERABETgwhLgo+I5H4NPmmW7V6OmR//1V9A15nbYYRy5qKKZSL930XzopAHx0PY24cYq7Fq3chn0J0v/Ak0aeRX0vrvvhCaWPAb99R9qoDPuZfrlI1IRN5dvhz77yMPQg5m3Qh9YNB4aGSqDfrD0cegzb66DHjXt9/p8iK+/63vQa4rY7oObX0W8K+Ya6JwRidCaAx9AH3tqBzTnMvZ7xrg4xFvf/Bl06Qu7odW1dCozcqcgvv3rbN+obB6nctcrSH9k6UfQATPvgs6ZMRjqaTwCfW3pg9DV4RnQby8ZBy1fz3b+8ufPIy7zcNijR12J+K4FN0In5aVD3XY6hyf2v4/4/37vEehO4zy6svIRT1+wGDo3i9z/9OTvEa/YcBQ6+67/Br1+PPm9/sPfId59Kfv3LzexfVG2SqSvefmP0OVb6JDccBf7OS6L7T22dRX2/+ihZ6BHyjg/7GFyHVBwA9K/9l2OR26UG7Ed2y/a0CGpOvQhMv3pfy6FrqqugwZtsdARk2dDF989B+re/QR0R2MudOSoK6CpUbRmao9xfFf8136kX/LP7G/VGs7jX/+/l5BebhybmNGcJ/csuB7pI6MOQ3/7H7+Fri09AbUlZ0BHz10C/dqU/tDtn2yDlgcYz5g+CLHX+gtDUwXi9574KXTpawegsQO/BH3gH4dDdyzn8R5+dR9ir4sErb9szLjtm0ifMyUFuvJ7/wf6l1KeR35nFOL+gy+D3v7AImhRKv9C0fF4cP7VlG5Cuaf/x8+hr1dHQ6d+6SvQxeN43XnmcY7X6+t5fK9xfuOHk+N9C3m9GJGTjHLes7d6UU4bi0AjPhxc+xr0d7/leZN399cR33HpAGiociv00f/1G+iJEZxnd8+biDglijOh4sAaxE889jQ0MGQh9KvzeX2OdtAbbSzbjPTHf8r5uWL7QcSNtkhoauYM6O1L+kE/epDzYnV9A+KmQDM0YJzYaOP8X7vkO0gf3MjryiPmulxTb/0FiPMu/xKe/3cuLET+D5axHc++z+uv11xXEy9jP7+76FrkK0iPgXY875FNGxEQgXYIONpJV7IIiIAIiIAIiIAIiIAIdAsCtK7OuSl0lBqqg6jJ46Sz8g/f5xNvplmr6IihA9kvhY5VR4e1u/nknDdsDLJeNqsWWpY+GTokjc7kvk17EYdCfNLdc7ga8bg8HqfuyA7EGw7zGTfeXc/8QTpWnyz7PfeX0gmc/6//jjjVNDPgP4p4x9rj0LpBvM+vrmR6ua0J6ZXFH0GfXsPjJVw6BfGVl9DZ2fMmnahnS3OQfsf9t0JTIuggHN1BB+Hth5ch3fPAHdD4Gjpt/oZPER+qKIdW1dDJiKraiXjdIToIjU46CiGz9re2icOcOe425PvKzaOglXueh27b/AE0K4EOwiAOk62pif0KpF+J/d8yjrT7JI+3Zd+zSF8Xcyf0iglDoeUJo6EjhuZCfTY6dce3sn1NcVuQXnJdETS7nuN2cP92xGUOpp80a1Wrd69B+s9+uwc6bs490NE5dFadjRzP8uOlSN924CQ0d0g81CxB4+czbJsba5C6a80fod7ZX4b+9wI6iM56jvveSvI4UkG+KZX7ka/CnwQ1S+pOfeb54D9p5uv+SuxvMmuXa/wexP0vXQj92rwR0PKdHPeNm+hYxQyiM1MTNRb77/72OGhyRBV0+5anoK9vuR0afbwCWuViuzmr/pbEee90sb7Cy29EvsnbX4Cm3cLxSrKTQzCC+aYt/ifsv3aY4YjIZktMz8KnyFAxtPboIOj8+8ltUCKPvGP3JqS/toXzd9S0PMTmDy74fOYNnS1ffDZ2j7/xOujx3/O8vmIK63FVrWbxtALorV+/FzqmXwS07shu6BP/9RJ0/j/Og04YkAg1xjE+a3M2BOiAnyw7iUIV6zi/02bxOlwxlg5naM8G7C85yXlZ08R5EQhSw4112L979zrox81p0JllG6EHqi+BDovnebfp9VWII0ZNh/7ToiHQqBDbUbb3Y8RNvuHQW3/wI+jsSs6Dpz7mddmbxfNp/qgM7E9ISobufpXXj/E30im+fPhApPvMWtSoOJ7nkSfZvnAKr2/z7+e8mzSAXD569m2UO1DC60Z2Cs+nSE5r7NNGBETg7Anwzuvsy6mECIiACIiACIiACIiACFwUAufJYbXa6sYHr/kWtbVULBzmo2WEjeo03963SrWrTjpRcfF8sk3L4hOxP4aOj898G9Vhvm6aP3YEqiovOwKtPEGnpeoAHbHRU/lkffQI23GydCfy7TVrmgpv5tqjScPikF5/nE/Ix07wyXnQhASkR0bQQQsF6Sgf3vwW0p/YzPxRo+civnUsn8A9oYOIt680DsLCWYjHFtFB8plvg2fFczjqA3xC/7S4GvmuwNZmyxs5GJ/2N7E/lRV0BGr20ikecSn7t2mz15Sg2N10jhPTyS+/MB87qqrpLGzez+O2vK3AKu1kelRiJlIGDWY5XwWdw3379iE95OZ4ZKTQuUqqJae4KLbDYb71G+UbgPyjhtRB9+0oh3oim6D2hALoiH4sFw7TOdn8zlakj71mInTG5UXQBBvrKT5UyjiTPLPTOe4dOasodGoTDnEcA06Wawz7za4Q1B6dCi1IJ69+6ZGID9FQMnk7L9Z4JGXSicovINekCs7zLYfI3TpvPLGcN7mGf6aT8/vo9igctDxABzW6gw7bzfkUn0qHND2J8zwljX9K8Ng5rtbbH9zmBA63eVuC3zjvXnP+WW8NcJn8AX8N21VLjUhj+zp2Vi2GzO/20ZlKzmR7U6P5fJ0Ux3FyVDG/Lz4FH3LyyLEgl+PTlMX5eE3x97F/3S7On6JMzleXR8/rFvGuKfnmZprzPZYDcmgfz8e649w/qojn/bb40y3G+rrDOOzR7XQ+b5x2M2KP+c7BVnM9zZ/K+RkMMn/YyfngME6tw8vrW9o4XnezM3idizbjGzjO63dyCa8X8QM5T4YUsp6An9eZYhfPO5fr9HZab0NoMmv4PeZtHC4Pj2udJ6EA53tDMa/P4SD/P+Rs7hphlRIBEWgloCt2Kwt9EgEREAEREAEREAER6IYE+Eh53hpGp2/P5mdQ46vfWwn1OdKhM267A3rLbD6RJ3rO17Mn77ujUoeh/pz6bdC1W+h4ntjLJ/RhRXTSjh/FbltDHfe7vXTSEuLp6NhDTH//kV8h47Ob6ADUDrgF8X/8w1ho1RE6jC88vQbxtClXQ+dN5vGc5j2RoRo6VxWxdBwKYsyTecuLCMkhMpqOly06EvUcq+WTv41Gms2TVIj00aES6N69dDIObGS7x1/K4dxmWdvIdcpBDNDBrDq8EynrPma8//3NiH0Db4QmRnpMCeMwmvcjNlUUI33jJx9DGw6uhR6t5vGKktkfG5uFfadvjGMWSWcrfeAQ7C5f9Rp03aBoaCAtBxrbWA21GQe1Yh8dtSTjfEc4m7H/8Ma3oT/65TPQJuOQzrznx4hvn8h515Gz5/axXUMnLEG5fY/+Evqjp9mOcGwO4gmz6ODMnn4J4o42YfNe33rDMWy+rW+NR+Uhzqu1H9OR2bt6K6qMyec4x0eSb8CsYd72KefZngZau9tL6BxNGsfxP3GsoxZ1bn/5vk3I+NQ7q6Gr4jgvHOY9sbMWfxvp14xh+2oqOA4v/eQtpDujOH8T8xcg/sGt/aHn62xHZV+44ZFcXs6rzNQU5N5q3k/b1jH+wqq0s30C5sSK61+APLEBXqhK3uT5uD9jJNKHJfJ633K5D/P6U75nF/av+WsSdOSgCuiujw5Ba6I/gE4ePw86et4SaMmPH4I++Mzj0Lponr/5V/P6fO/V05E+KNVcOBF1vGk4WYNMLz33E+hys+bb7eD5NWT8HKQvnMP2Hlq/AvGrW96AJjp4Ao696XuIb8jnX6YiTjdssU8bERCBsycgh/XsmamECIiACIiACIiACIjARSRAi+S8HTARNQ0uuhd63y9mQ/ubb1m6rV8uukBfz3WaX8DJzqWjs/qJDTh+5g10xmK8BxBbTk9kbAbioJ9ro/bv2Im4wDi1M779XcSjSz6CPvQ0HU/zWkCbK4VrEK/7xkLsv87GJ/TNf6UD6Y0Yj/SiXHLJDhxBvPsondG8PD6pJ3Cpk63uBPeX7aFTnT+dzoSNh7XZjcM1IDcb9az487vQwCXXQuNjWc5hvqWOxFObUB3rXf8mHYFte9memJEzkGVJATmUHCpGHMpIpjZxzVfJBjqhS0vfR3pkfzqAVy9Ygjg/mRZCZQnC9jd2L/ZFR7P++tj9iFeXDoMuNGvVNu2oZh12OtUZw+oRb9jP8cstpHMxoOg6pD/4E5Zfv/p5xPvD0Kun6QAACp9JREFULN7prfULWnXkfc03HkTRuWYtW6jqIOLn1myCrtjJ+XW1y4e44rgfWm3e95hu3i9ZfbwY6ftSmM9rxi9cS1Br33gH+7fu4nFjR89C/JWxo6EJwU+glTvfgT5p3osblcF5N+6mu5F+SX9yXbkZ4TlvUgbz+F+ddhvqumkUHSyrYrfXg4+B2l3Q2CSOw799n85WXDXHdeWrXKO8s6QK+TIG0+m8QKe/1bxTygkQqD2KtHVb2I7YSTzROr2G/jM16mP7BOxOXsf6p4eQ6Y01PE/j86ciznBwfprLo625vhLpW97jdWW9vQzxzsf4l7FQfS3itNG8Tu08zPkz3MP48m/Qwbw2nudVsIH1bXvvcZR7feso6FeT6fRb13skfsEmIopO6uJ//iFyXTsmHxpl1sJaa7UbD72H9AETeN393t3zEOdVPgF9cx/nXbl5m0tGLP/SY16WgzzaiIAInD0BOaxnz0wlREAEREAEREAEREAELiIB1/k9Fp9lnea34iMj+YQb2dVHS/PeyuMHt6OZ77/7MdQ5MAp6cASdwZY+GAfLlzkUSZcX8ol80Gjmq91Lp8zK70vKxcd+EXSyNqx5E/FLB2hVOX10DBqq9iHdFUfHIML8kk6M+XbqwCQ+iY8fGkC+shc+gK5cvgraNHMMNPc6OgIv7/or4hePbIR6zbfUyw/QCQrFsP3Tc/jEH9qKbKc25OvNKEDCuIF0NtMm5iCObKqG2ts4rM447r9i8Xex/867JjC/g88rZeseRfzPL7L99901B3Gul8fPnXYv4ru/eSU0NSoC6jLlA3WliDdvIbdPPuW0yu0/GOlJ/eh4We33RbPeHPPLUY3BHOTLiaJjtwnR33Jz/uSNY39XPbUTe15s4vHSotj+UB0dmONlHuwfOpzt62jtquXEWe9L3f7WcpTfFhkNjXOS7ylLCPFhRyr00hHcnxC+FHHthjXQvy7/I3SteQvG4T2HEWfPmw9NN4vZDsdz3k2/YwrS77hjLNRnjueyc97VlrI/yWNuxf6v3U0HMzeN/FxmvtubeJxQA+fPzm3FyP9MA0m6zTjljeA89B7lebRu527kS1hFzbnSi7ixho7VxvfpgDn3c97aDdCc4eOQLz+d42q3uxH7ohOgg3KpTcEPEb/29jtQT+hy6KRCcmz/4sN6mxvovG1d+S7KfVrmh6ZumwSdwulhqzqyF/Hby5dBixNYc30dx21302ykf3k4nXHrl7uQqM15IMDrUlrOINSVN5N/cRpivo0fu/d9HsOs5a6v4nwtrhmG9B8/tAQ6wlpzWsvx/MNynlf7P12H/TWVB6DlzU1QV1Qs1BbgOFc6OO8G53FiWG+Psa4+zNz+Nmy+/b/t45XI1HyQ1zOPeVtKfEo+0odlB6GW4+oz14uCYfcgvaH6N9ANy1+BOq67CTp8IP8/Mi/XQJo2IiACnSfA//E7n185RUAEREAEREAEREAEROCiEmjf5DirZvC+NzIpE6VGXZ8EjWvzPruzqvJU5nBzA4ocq+QTdLxx/NIT6DyZ1/DZErLpGBa6+QSckjIA5QZ8LQdqC7GeIykDEU8cxydwny8N8aS5dASiHXTYVn6yHeknzKO5N5KO1pXzuDYq2TzY+wdNRL6IaCZ4Eum83XATC4Ze3YD9wQCdurxxtyOe73gS+uI7e6B1DexPRi6dqxvmz0B6P+MgVqQMQZwfQwchNT4DccG95G2zNSOuPJYNnTyZjkeMj85YShadj4kJfML3GYfYZdb6+VLoYF41he0YkBSFenx+cpw6lfXFRdK5dLd5j25zXRnyH2ni2tT+MXWIvcYxdHo4H0bcQEclPYUOW0pOP+Qbia3N1lBWi0/5+VwzmW7WfibF0Vn8yj2s59HnViDfroM8js0Wh3hA4TTopEGM2WoktbNhDlcE50O/Irbrgzc3I39pk3FS4sh14pVjkD51IMfBHb4c8Zeu4Jq151dw3uyuJsfEDO5fMJ7zzuOmM5SWzXk6IZ39aR0Pq5mmXZEc30sncdxS4tlOt+Fq9S/sNO3PYH3bdpegot3b6TxbTlBCTiHSfRUV0Mg8zquoIB1dh3lbQmpyf+YrLoZur4HY7Hae5/EDycHuYruGzR6ODOkJnG9uM0+Gj+TI1ps/ETQ2kidr+6It8zVUsf0nAzyf0i7j+WpvCqCwOyML2i+O5+emvXsRby/jZS0+fxrib/3jeGh6jHHeEWnTdQJ01OOyeH0oupbzIiFpMKpcMJU1242jeqJ+NBLGJ3C8oqMaEOdfMQtakMrrpsf6S1wi812ayutDtTkP4gYcR/59b3Kcj+4389Z6S8CMW7B/5hCeB9bLUkI+nq8jBnO+p2aYCzhy22wO8xeIhAFsePQenj+7tvN4Nhvbl2f+ojdyOM/LgiGsNz3Zi5qcbuYbcdXtiOv/+Cq05Ze9OI3NUSUiIAJnS4BXmrMtpfwiIAIiIAIiIAIiIAIicJEI2E+9k7DD577GxkY0J2DeK9nVtoWb6MR99NrrqGLVup1Qyydrrdc4JCl0NOfefh12DTTOquUstebXJxFoJVBfSQfmgzefQuI7m+hstuYwn8wa0KQJs5Fw+zTOt6SW99F+roQSukAgHKhFqV1rVkGXv/YR1PoLRmuVfH72+PKQdP0dN0JHZNExv/BvF2htSV/65PXSIXSbt7n0pb6rryIgAj2HgBzWnjNWaqkIiIAIiIAIiIAI9EkCtDIvVtfNGriIOK4VHDyMh/d/7vhmDWD6QOyxfvFHzurnQCnhDASstZYxqQXYO2xY8Ay5Tr2FwLy3N2FAOvZHeS7u6XDGRvXKRJ657giu+Rs4lGuZuRL7sx3mWm9fNNcupsVyzWnLD8J9Nqs+i4AIiIAI9CkCclj71HCrsyIgAiIgAiIgAiLQ8whc1DWsPQ+PWiwCIiACvZuA1rD27vFV70SgtxCQw9pbRlL9EAEREAEREAEREIFeSkA3rL10YNUtERABERABERABEegtBHTD2ltGUv0QAREQAREQAREQgV5KQDesvXRg1S0REAEREAEREAER6C0EdMPaW0ZS/RABERABERABERCBXkqgUy+etNv5HkXrN5d7KQt1SwREQAT6HAHr+t7nOq4Oi4AI9CgCclh71HCpsSIgAiIgAiIgAiLQ9wh06j2s4XC475FRj0VABESgDxCQw9oHBlldFIFeQEAOay8YRHVBBERABERABERABHozgbNaw9qbQahvIiACIiACIiACIiAC3ZOAHNbuOS5qlQiIgAiIgAiIgAiIgCGgG1ZNBREQAREQAREQAREQgW5NQDes3Xp41DgREAEREAEREAEREAHdsGoOiIAIiIAIiIAIiIAIdGsCumHt1sOjxomACIiACIiACIiACOiGVXNABERABERABERABESgWxPQDWu3Hh41TgREQAREQAREQAREQDesmgMiIAIiIAIiIAIiIALdmoBuWLv18KhxIiACIiACIiACIiACumHVHBABERABERABERABEejWBHTD2q2HR40TAREQAREQAREQARHQDavmgAiIgAiIgAiIgAiIQLcmoBvWbj08apwIiIAIiIAIiIAIiIBuWDUHREAEREAEREAEREAEujUB3bB26+FR40RABERABERABERABP4/L9H4Ju02ZaEAAAAASUVORK5CYII=;" vertex="1" parent="1">
          <mxGeometry x="421.54" y="380" width="246.93" height="100" as="geometry" />
        </mxCell>
      </root>
    </mxGraphModel>
  </diagram>
</mxfile>
